<svg id="Layer_1" data-name="Layer 1" xmlns="http://www.w3.org/2000/svg" xmlns:xlink="http://www.w3.org/1999/xlink" viewBox="0 0 256 256"><defs><style>.cls-1{fill:url(#linear-gradient);}.cls-2{fill:#fff;}</style><linearGradient id="linear-gradient" x1="-2.78" y1="127.74" x2="260.11" y2="127.74" gradientUnits="userSpaceOnUse"><stop offset="0" stop-color="#61175e"/><stop offset="0.08" stop-color="#6b175c"/><stop offset="0.21" stop-color="#871758"/><stop offset="0.38" stop-color="#b31851"/><stop offset="0.57" stop-color="#ee1847"/><stop offset="0.64" stop-color="#f33e31"/><stop offset="0.77" stop-color="#fa780e"/><stop offset="0.83" stop-color="#fd8f01"/><stop offset="0.86" stop-color="#fd9205"/><stop offset="0.89" stop-color="#fd990f"/><stop offset="0.92" stop-color="#fda622"/><stop offset="0.95" stop-color="#fdb83b"/><stop offset="0.98" stop-color="#fdd05c"/><stop offset="1" stop-color="#fde87e"/></linearGradient></defs><rect class="cls-1" x="-2.78" y="-3.08" width="262.89" height="261.63"/><path class="cls-2" d="M173.13,106a11,11,0,0,0-18.76-7.71L119.5,133.34l-19-18.85a10.9,10.9,0,0,0-7.74-3.19h0a11,11,0,0,0-7.71,18.76l34.5,34.32,50.36-50.61A10.9,10.9,0,0,0,173.13,106Z"/><path class="cls-2" d="M65.2,76.26a6.23,6.23,0,0,0-8.81,0L6.9,125.75,20.11,139a6.23,6.23,0,1,0,8.81-8.82l-4.4-4.39.37-.37L65.2,85.07A6.23,6.23,0,0,0,65.2,76.26Z"/><path class="cls-2" d="M222.43,131.61a6.24,6.24,0,0,0,4.41-1.82l21.39-21.4L160.7,20.86,119.38,62.18,94.65,37.46,73.88,58.24a6.24,6.24,0,0,0,0,8.81,6.23,6.23,0,0,0,8.81,0l12-12,24.73,24.72L160.7,38.49l.37.36,69.53,69.54L218,121a6.23,6.23,0,0,0,4.41,10.63Z"/><path class="cls-2" d="M38.74,155.31l80.76,80.76,19.79-19.79a6.24,6.24,0,0,0-4.41-10.64,6.16,6.16,0,0,0-4.4,1.83h0l-11,11-.37-.37L47.55,146.49a6.23,6.23,0,1,0-8.81,8.82Z"/><path class="cls-2" d="M204.37,136.16A6.19,6.19,0,0,0,200,138L148.05,189.9a6.23,6.23,0,0,0,0,8.81,6.22,6.22,0,0,0,8.81,0l51.91-51.91a6.24,6.24,0,0,0-4.4-10.64Z"/><path class="cls-2" d="M105,186.23l14.27,14.28L163,156.68a6.23,6.23,0,0,0-8.81-8.81l-35,35-5.46-5.46a6.23,6.23,0,0,0-8.81,8.81Z"/><path class="cls-2" d="M160.41,56.27,148.47,68.22h0A6.23,6.23,0,1,0,157.28,77l3.13-3.13.37.37,33.53,33.52-22.93,22.93a6.24,6.24,0,0,0,4.41,10.64,6.16,6.16,0,0,0,4.4-1.83l31.74-31.74Z"/><path class="cls-2" d="M139.15,95.07a6.23,6.23,0,1,0-8.81-8.81L119.41,97.19,94.77,72.55,42.9,124.43,87,168.49a6.23,6.23,0,1,0,8.81-8.81L60.53,124.43l.37-.37L94.77,90.18l24.64,24.63Z"/></svg>