<?xml version="1.0" standalone="no"?>
<!DOCTYPE svg PUBLIC "-//W3C//DTD SVG 1.1//EN" "http://www.w3.org/Graphics/SVG/1.1/DTD/svg11.dtd">
<svg xmlns="http://www.w3.org/2000/svg" xmlns:xlink="http://www.w3.org/1999/xlink" id="_Слой_1" data-name="Слой 1" viewBox="0 0 872.21 185.54" width="872.2100219726562" height="185.5399932861328">
  <defs>
    <style>
      .cls-1 {
        fill: url(#linear-gradient);
      }

      .cls-2 {
        fill: #fff;
      }

      .cls-3 {
        fill: #61175e;
      }

      .cls-4 {
        fill: url(#_Безымянный_градиент_287);
      }

      .cls-5 {
        fill: url(#_Безымянный_градиент_281);
      }

      .cls-6 {
        fill: url(#_Безымянный_градиент_280);
      }

      .cls-7 {
        fill: url(#_Безымянный_градиент_283);
      }

      .cls-8 {
        fill: url(#_Безымянный_градиент_286);
      }

      .cls-9 {
        fill: url(#linear-gradient-2);
      }
    </style>
    <linearGradient id="_Безымянный_градиент_287" data-name="Безымянный градиент 287" x1="-25.1" y1="130.71" x2="142.59" y2="-36.98" gradientUnits="userSpaceOnUse">
      <stop offset="0" stop-color="#fde87e"/>
      <stop offset=".06" stop-color="#fbd177"/>
      <stop offset=".2" stop-color="#f79668"/>
      <stop offset=".39" stop-color="#f0384f"/>
      <stop offset=".45" stop-color="#ee1847"/>
      <stop offset=".56" stop-color="#ca174c"/>
      <stop offset=".8" stop-color="#72175b"/>
      <stop offset=".85" stop-color="#61175e"/>
    </linearGradient>
    <linearGradient id="_Безымянный_градиент_283" data-name="Безымянный градиент 283" x1="15.47" y1="171.27" x2="183.15" y2="3.59" gradientUnits="userSpaceOnUse">
      <stop offset="0" stop-color="#fde87e"/>
      <stop offset=".06" stop-color="#fbd177"/>
      <stop offset=".2" stop-color="#f79668"/>
      <stop offset=".39" stop-color="#f0384f"/>
      <stop offset=".45" stop-color="#ee1847"/>
      <stop offset=".56" stop-color="#ca174c"/>
      <stop offset=".8" stop-color="#72175b"/>
      <stop offset=".85" stop-color="#61175e"/>
    </linearGradient>
    <linearGradient id="_Безымянный_градиент_286" data-name="Безымянный градиент 286" x1="26.69" y1="182.5" x2="194.38" y2="14.81" gradientUnits="userSpaceOnUse">
      <stop offset="0" stop-color="#fde87e"/>
      <stop offset=".06" stop-color="#fbd177"/>
      <stop offset=".2" stop-color="#f79668"/>
      <stop offset=".39" stop-color="#f0384f"/>
      <stop offset=".45" stop-color="#ee1847"/>
      <stop offset=".56" stop-color="#ca174c"/>
      <stop offset=".8" stop-color="#72175b"/>
      <stop offset=".85" stop-color="#61175e"/>
    </linearGradient>
    <linearGradient id="linear-gradient" x1="59.61" y1="215.41" x2="227.29" y2="47.73" gradientUnits="userSpaceOnUse">
      <stop offset="0" stop-color="#fde87e"/>
      <stop offset=".06" stop-color="#fbd177"/>
      <stop offset=".2" stop-color="#f79668"/>
      <stop offset=".39" stop-color="#f0384f"/>
      <stop offset=".45" stop-color="#ee1847"/>
      <stop offset=".56" stop-color="#ca174c"/>
      <stop offset=".8" stop-color="#72175b"/>
      <stop offset=".85" stop-color="#61175e"/>
    </linearGradient>
    <linearGradient id="linear-gradient-2" x1="39.9" y1="195.71" x2="207.59" y2="28.02" xlink:href="#linear-gradient"/>
    <linearGradient id="_Безымянный_градиент_281" data-name="Безымянный градиент 281" x1="25.75" y1="181.55" x2="193.43" y2="13.87" gradientUnits="userSpaceOnUse">
      <stop offset="0" stop-color="#fde87e"/>
      <stop offset=".06" stop-color="#fbd177"/>
      <stop offset=".2" stop-color="#f79668"/>
      <stop offset=".39" stop-color="#f0384f"/>
      <stop offset=".45" stop-color="#ee1847"/>
      <stop offset=".56" stop-color="#ca174c"/>
      <stop offset=".8" stop-color="#72175b"/>
      <stop offset=".85" stop-color="#61175e"/>
    </linearGradient>
    <linearGradient id="_Безымянный_градиент_280" data-name="Безымянный градиент 280" x1="3.16" y1="158.96" x2="170.84" y2="-8.72" gradientUnits="userSpaceOnUse">
      <stop offset="0" stop-color="#fde87e"/>
      <stop offset=".06" stop-color="#fbd177"/>
      <stop offset=".2" stop-color="#f79668"/>
      <stop offset=".39" stop-color="#f0384f"/>
      <stop offset=".45" stop-color="#ee1847"/>
      <stop offset=".56" stop-color="#ca174c"/>
      <stop offset=".8" stop-color="#72175b"/>
      <stop offset=".85" stop-color="#61175e"/>
    </linearGradient>
  </defs>
  <g>
    <path class="cls-3" d="M143.31,73.4c0-2.53-1-4.9-2.79-6.69-3.7-3.68-9.7-3.66-13.38,.04l-30.06,30.22-16.34-16.25c-1.78-1.78-4.15-2.75-6.67-2.75h-.03c-2.53,0-4.9,1-6.68,2.79-3.68,3.7-3.67,9.71,.03,13.39l29.74,29.58,43.42-43.63c1.78-1.79,2.76-4.17,2.76-6.7Z"/>
    <path class="cls-4" d="M50.26,47.76c-2.1-2.1-5.5-2.1-7.6,0L0,90.42l11.39,11.39c1.01,1.01,2.36,1.57,3.8,1.57s2.78-.56,3.8-1.57c2.09-2.09,2.09-5.5,0-7.6l-3.79-3.79,.32-.32L50.26,55.36c2.1-2.09,2.1-5.5,0-7.6Z"/>
    <path class="cls-7" d="M185.81,95.48c1.43,0,2.78-.56,3.8-1.57l18.44-18.44L132.59,0l-35.62,35.62-21.31-21.31-17.91,17.91c-1.01,1.01-1.57,2.36-1.57,3.8s.56,2.78,1.57,3.8c2.09,2.1,5.5,2.1,7.6,0l10.31-10.31,21.31,21.31L132.59,15.2l.32,.32,59.95,59.95-10.85,10.85c-2.1,2.09-2.1,5.5,0,7.6,1.01,1.01,2.36,1.57,3.8,1.57Z"/>
    <path class="cls-8" d="M27.45,115.91l69.63,69.63,17.06-17.06c2.1-2.09,2.1-5.5,0-7.6-1.01-1.02-2.36-1.58-3.8-1.58s-2.78,.56-3.8,1.57h0s-9.46,9.46-9.46,9.46l-.32-.32-61.71-61.71c-1.05-1.05-2.42-1.57-3.8-1.57s-2.75,.52-3.8,1.57c-2.1,2.09-2.1,5.5,0,7.6Z"/>
    <path class="cls-1" d="M170.24,99.41c-1.38,0-2.75,.52-3.8,1.57l-44.76,44.76c-2.1,2.09-2.1,5.5,0,7.6,1.01,1.02,2.36,1.58,3.8,1.58s2.78-.56,3.8-1.58l44.76-44.76c2.1-2.09,2.1-5.5,0-7.6-1.05-1.05-2.42-1.57-3.8-1.57Z"/>
    <path class="cls-9" d="M84.53,142.57l12.31,12.31,37.78-37.78c2.1-2.1,2.1-5.5,0-7.6-2.1-2.1-5.5-2.1-7.6,0l-30.18,30.18-4.71-4.71c-1.05-1.05-2.42-1.57-3.8-1.57s-2.75,.52-3.8,1.57c-2.09,2.09-2.09,5.5,0,7.6Z"/>
    <path class="cls-5" d="M132.35,30.53l-10.3,10.3h0c-2.09,2.09-2.09,5.5,0,7.6,1.01,1.01,2.36,1.57,3.8,1.57s2.78-.56,3.8-1.57l2.7-2.7,.32,.32,28.9,28.9-19.76,19.76c-2.1,2.09-2.1,5.5,0,7.6,1.01,1.01,2.36,1.57,3.8,1.57s2.78-.56,3.8-1.57l27.36-27.36-44.42-44.42Z"/>
    <path class="cls-6" d="M114.02,63.97c2.1-2.09,2.1-5.5,0-7.6-2.09-2.1-5.5-2.1-7.6,0l-9.43,9.42-21.24-21.24L31.04,89.29l37.99,37.99c1.01,1.01,2.36,1.57,3.8,1.57s2.78-.56,3.8-1.57c2.09-2.09,2.09-5.5,0-7.6l-30.39-30.4,.32-.32,29.21-29.21,21.24,21.24,17.02-17.02Z"/>
  </g>
  <g>
    <path class="cls-2" d="M304.51,129.4h-4.49c-2.11,0-3.87-.9-5.36-2.75-1.59-1.96-2.4-4.47-2.4-7.47v-30.57h8.94c2.43,0,4.47-.74,6.05-2.21,1.62-1.51,2.44-3.42,2.44-5.68,0-2.44-.83-4.44-2.46-5.95-1.58-1.46-3.61-2.2-6.04-2.2h-8.94v-16.87c0-2.56-.84-4.72-2.51-6.42-1.67-1.68-3.81-2.53-6.38-2.53s-4.7,.85-6.38,2.53c-1.67,1.68-2.51,3.84-2.51,6.42v16.87h-3.78c-2.44,0-4.47,.74-6.04,2.21-1.63,1.51-2.46,3.51-2.46,5.95,0,2.26,.83,4.17,2.46,5.68,1.58,1.46,3.62,2.2,6.05,2.2h3.78v30.57c0,5.23,1.11,10.02,3.3,14.24,2.2,4.24,5.27,7.65,9.12,10.13,3.89,2.5,8.31,3.76,13.13,3.76h2.38c2.85,0,5.24-.81,7.09-2.41,1.98-1.68,2.98-3.89,2.98-6.55,0-2.52-.75-4.65-2.24-6.33-1.56-1.74-3.49-2.62-5.75-2.62Z"/>
    <path class="cls-2" d="M380.34,80.74c.59-2.35,.38-5.75-3.94-8.64-2.96-1.97-7.36-2.97-13.09-2.97s-10.91,1.35-15.65,4.02c-1.62,.92-3.13,1.95-4.52,3.08-.35-1.61-1.04-2.93-2.05-3.95-1.54-1.55-3.75-2.33-6.57-2.33s-4.92,.81-6.51,2.4c-1.58,1.59-2.38,3.8-2.38,6.54v59.48c0,2.87,.82,5.1,2.42,6.64,1.59,1.53,3.77,2.31,6.48,2.31s5.07-.82,6.61-2.44c1.52-1.6,2.29-3.79,2.29-6.52v-38.85c0-3.44,1.09-6.3,3.24-8.51,2.26-2.32,5.45-3.95,9.48-4.82,4.17-.9,8.95-.82,14.19,.25,1.44,.34,2.82,.4,4.1,.16,1.38-.25,2.62-.86,3.69-1.8,1.11-.99,1.87-2.36,2.22-4.04Z"/>
    <path class="cls-2" d="M454.9,107.64c-.16-6.97-1.88-13.37-5.11-19.01-3.39-5.9-8.05-10.64-13.83-14.07-5.79-3.43-12.41-5.17-19.66-5.17s-13.89,1.74-19.71,5.17c-5.83,3.43-10.51,8.17-13.9,14.07-3.4,5.91-5.13,12.66-5.13,20.05s1.58,14.07,4.7,19.92c3.12,5.88,7.46,10.6,12.88,14.04,5.46,3.46,11.69,5.21,18.53,5.21s13.08-1.75,18.53-5.21c1.68-1.06,3.25-2.25,4.71-3.54,.15,2.26,1.01,4.19,2.56,5.75,1.72,1.73,3.88,2.6,6.45,2.6s4.72-.88,6.45-2.6c1.71-1.73,2.58-3.91,2.58-6.49v-30.3s-.04-.41-.04-.41Zm-17.51,1.03c0,4.29-.93,8.2-2.76,11.61-1.82,3.39-4.34,6.1-7.51,8.05-3.14,1.94-6.78,2.92-10.82,2.92s-7.58-.98-10.76-2.93c-3.22-1.97-5.79-4.68-7.63-8.06-1.87-3.41-2.82-7.31-2.82-11.59s.95-8.32,2.82-11.73c1.86-3.39,4.43-6.11,7.63-8.06,3.19-1.94,6.81-2.93,10.76-2.93s7.68,.98,10.82,2.92c3.16,1.96,5.69,4.67,7.51,8.05,1.83,3.41,2.76,7.37,2.76,11.75Z"/>
    <path class="cls-2" d="M517.02,72.58h0c-4.6-2.12-9.72-3.2-15.23-3.2-7.33,0-13.94,1.7-19.64,5.04-5.71,3.34-10.26,8.05-13.53,13.98-3.26,5.9-4.91,12.72-4.91,20.28s1.68,14.11,4.98,19.96c3.32,5.89,7.96,10.61,13.78,14.02,5.83,3.43,12.55,5.17,19.98,5.17,10.06,0,18.6-3.22,25.4-9.59,1.74-1.74,2.49-3.78,2.24-6.08-.25-2.15-1.36-4.06-3.3-5.68-1.62-1.38-3.52-1.99-5.64-1.8-1.94,.17-3.83,.99-5.61,2.44-1.7,1.4-3.61,2.45-5.66,3.12-2.11,.68-4.61,1.02-7.42,1.02-4.22,0-7.95-.98-11.09-2.92-3.16-1.95-5.66-4.63-7.43-7.97-1.8-3.38-2.71-7.31-2.71-11.69,0-4.64,.89-8.72,2.64-12.12,1.72-3.32,4.15-5.94,7.22-7.81,3.05-1.86,6.66-2.8,10.71-2.8,5.73,0,10.6,2.1,14.49,6.25,1.56,1.57,3.33,2.56,5.25,2.96,2.13,.45,4.12,.03,5.9-1.26,2.04-1.48,3.31-3.27,3.79-5.33,.53-2.26-.08-4.41-1.82-6.41-3.62-4.21-7.78-7.44-12.38-9.57Z"/>
    <path class="cls-2" d="M596.27,74.12c-5.29-3.28-11.67-4.95-18.96-4.95s-13.98,1.7-19.7,5.05c-5.71,3.34-10.25,8.04-13.51,13.95-3.22,5.87-4.85,12.73-4.85,20.39s1.73,14.43,5.14,20.3c3.41,5.89,8.2,10.58,14.25,13.93,6.01,3.33,12.95,5.02,20.64,5.02,4.31,0,8.86-.8,13.52-2.39,4.7-1.6,8.69-3.69,11.85-6.23,2.13-1.63,3.14-3.69,3.01-6.1-.12-2.21-1.18-4.24-3.19-6.04-1.58-1.35-3.46-2.01-5.59-1.95-2.02,.06-3.9,.73-5.61,1.99-1.58,1.2-3.72,2.28-6.35,3.2-2.62,.93-5.19,1.4-7.65,1.4-4.61,0-8.73-1.02-12.25-3.03-3.51-2.01-6.3-4.78-8.3-8.23-.88-1.52-1.57-3.18-2.08-4.95h47.51c2.38,0,4.39-.78,5.96-2.32,1.61-1.57,2.42-3.54,2.42-5.85,0-7.34-1.39-13.94-4.14-19.62-2.78-5.73-6.87-10.3-12.17-13.59Zm-39.45,26.27c.38-1.32,.87-2.61,1.45-3.82,1.64-3.44,4.09-6.18,7.27-8.15,3.17-1.98,7.1-2.98,11.68-2.98,3.93,0,7.29,.9,9.97,2.69,2.72,1.8,4.85,4.29,6.33,7.4,.73,1.52,1.3,3.16,1.69,4.87h-38.38Z"/>
    <path class="cls-2" d="M656.74,129.4h-4.49c-2.11,0-3.87-.9-5.36-2.75-1.59-1.96-2.4-4.47-2.4-7.47v-30.57h8.94c2.43,0,4.47-.74,6.05-2.21,1.63-1.52,2.46-3.43,2.46-5.68,0-2.44-.83-4.44-2.46-5.95-1.58-1.46-3.61-2.2-6.04-2.2h-8.94v-16.87c0-2.56-.84-4.72-2.51-6.42-1.67-1.68-3.82-2.53-6.38-2.53s-4.7,.85-6.38,2.53c-1.67,1.68-2.51,3.84-2.51,6.42v16.87h-3.79c-2.44,0-4.47,.74-6.04,2.21-1.63,1.52-2.45,3.52-2.45,5.95,0,2.26,.83,4.17,2.46,5.68,1.58,1.46,3.62,2.2,6.05,2.2h3.78v30.57c0,5.23,1.11,10.02,3.3,14.24,2.21,4.26,5.28,7.67,9.12,10.13,3.89,2.5,8.31,3.76,13.13,3.76h2.38c2.85,0,5.24-.81,7.09-2.42,1.98-1.69,2.98-3.9,2.98-6.54s-.75-4.66-2.24-6.33c-1.57-1.74-3.51-2.62-5.76-2.62Z"/>
    <path class="cls-2" d="M728.63,74.12c-5.29-3.28-11.67-4.95-18.96-4.95s-13.98,1.7-19.69,5.05c-5.71,3.34-10.25,8.04-13.51,13.95-3.22,5.87-4.85,12.73-4.85,20.39s1.73,14.43,5.14,20.3c3.41,5.89,8.2,10.58,14.25,13.93,6.01,3.33,12.95,5.02,20.64,5.02,4.31,0,8.86-.8,13.52-2.39,4.7-1.6,8.69-3.69,11.85-6.23,2.13-1.63,3.14-3.69,3.01-6.1-.12-2.21-1.18-4.24-3.19-6.04-1.6-1.36-3.46-2.01-5.59-1.95-2.02,.06-3.9,.73-5.61,1.99-1.58,1.2-3.72,2.28-6.34,3.2-2.62,.93-5.19,1.4-7.65,1.4-4.61,0-8.73-1.02-12.25-3.03-3.51-2.01-6.3-4.78-8.3-8.23-.88-1.52-1.57-3.18-2.08-4.95h47.52c2.38,0,4.38-.78,5.96-2.32,1.61-1.57,2.42-3.54,2.42-5.85,0-7.34-1.39-13.94-4.14-19.62-2.78-5.73-6.87-10.3-12.17-13.59Zm-.91,26.16h-38.5c.39-1.35,.87-2.64,1.46-3.85,1.65-3.45,4.1-6.2,7.29-8.18,3.18-1.98,7.12-2.99,11.71-2.99,3.95,0,7.31,.91,10,2.69,2.73,1.81,4.87,4.3,6.34,7.41,.72,1.53,1.29,3.17,1.7,4.9Z"/>
    <path class="cls-2" d="M803.31,105.18c-4.03-2.14-9.51-3.92-16.27-5.27-4.59-.94-8.09-1.9-10.42-2.86-2.52-1.04-3.52-1.98-3.91-2.6-.59-.91-.88-1.94-.88-3.06,0-1.68,.85-2.85,2.75-3.79,2.35-1.17,5.32-1.76,8.83-1.76,3.09,0,5.84,.37,8.17,1.09,2.2,.69,4.3,1.99,6.25,3.88,1.65,1.55,3.69,2.55,6.04,2.98,2.55,.46,4.83,.02,6.81-1.35,1.97-1.48,3.03-3.38,3.16-5.63,.12-2.17-.64-4.21-2.23-6.05-2.88-3.57-6.78-6.39-11.6-8.38-4.73-1.97-10.23-2.97-16.33-2.97-4.72,0-9.33,.78-13.7,2.33-4.49,1.58-8.23,4.03-11.12,7.29-3.02,3.4-4.54,7.69-4.54,12.78,0,5.82,2.28,10.79,6.79,14.77,4.28,3.8,11.16,6.67,20.46,8.53,6.46,1.16,10.92,2.63,13.24,4.36,1.98,1.49,2.91,3.13,2.85,5-.06,1.88-1.04,3.36-3.09,4.64-2.32,1.45-5.84,2.18-10.48,2.18-3.7,0-7.1-.67-10.11-2-2.99-1.33-5.16-2.73-6.45-4.18-1.61-1.74-3.56-2.76-5.81-3.04-2.36-.3-4.68,.46-6.9,2.25-2.01,1.54-3.17,3.56-3.45,6-.31,2.52,.46,4.78,2.3,6.75,3.14,3.16,7.53,5.78,13.06,7.79,5.46,1.99,11.48,3,17.89,3s12.15-1.06,16.61-3.14c4.55-2.12,8.07-5.04,10.45-8.67,2.4-3.64,3.61-7.78,3.61-12.32,0-3.96-.96-7.53-2.85-10.6-1.86-3.06-4.93-5.74-9.12-7.97Z"/>
    <path class="cls-2" d="M869.95,132.03h0c-1.55-1.74-3.48-2.63-5.74-2.63h-4.49c-2.11,0-3.87-.9-5.36-2.75-1.59-1.96-2.4-4.47-2.4-7.47v-30.57h8.94c2.43,0,4.47-.74,6.05-2.21,1.63-1.52,2.45-3.43,2.45-5.68,0-2.44-.83-4.44-2.46-5.95-1.58-1.46-3.61-2.2-6.04-2.2h-8.94v-16.87c0-2.56-.84-4.72-2.51-6.42-1.67-1.68-3.81-2.53-6.38-2.53s-4.69,.85-6.38,2.53c-1.67,1.68-2.51,3.84-2.51,6.42v16.87h-3.78c-2.44,0-4.47,.74-6.04,2.21-1.63,1.52-2.45,3.52-2.45,5.95,0,2.26,.83,4.17,2.46,5.68,1.58,1.46,3.62,2.2,6.05,2.2h3.78v30.57c0,5.23,1.11,10.02,3.3,14.24,2.2,4.24,5.27,7.65,9.12,10.13,3.89,2.5,8.31,3.76,13.13,3.76h2.38c2.85,0,5.24-.81,7.09-2.41,1.98-1.68,2.98-3.89,2.98-6.55-.02-2.52-.78-4.65-2.26-6.31Z"/>
  </g>
</svg>