<svg width="12" height="12" viewBox="0 0 12 12" fill="none" xmlns="http://www.w3.org/2000/svg">
    <path d="M6 9.73555L0.701562 5.58868C0.620312 5.52462 0.5 5.58243 0.5 5.68712L0.5 6.89493C0.5 6.97149 0.535937 7.04493 0.595312 7.0918L5.69219 11.0809C5.78022 11.15 5.88888 11.1875 6.00078 11.1875C6.11268 11.1875 6.22135 11.15 6.30937 11.0809L11.4047 7.0918C11.4656 7.04493 11.5 6.97149 11.5 6.89493L11.5 5.68712C11.5 5.58243 11.3797 5.52462 11.2984 5.58868L6 9.73555ZM6 4.98555L0.701562 0.838678C0.620312 0.774616 0.5 0.832428 0.5 0.937116L0.5 2.14493C0.5 2.22149 0.535937 2.29493 0.595312 2.3418L5.69219 6.33087C5.78022 6.39995 5.88888 6.4375 6.00078 6.4375C6.11268 6.4375 6.22135 6.39995 6.30937 6.33087L11.4047 2.3418C11.4656 2.29493 11.5 2.22149 11.5 2.14493L11.5 0.937115C11.5 0.832427 11.3797 0.774616 11.2984 0.838678L6 4.98555Z" fill="#031849"/>
</svg>
