<svg width="203" height="203" viewBox="0 0 203 203" fill="none" xmlns="http://www.w3.org/2000/svg">
<path d="M96.5761 192.29C149.361 192.29 192.152 149.468 192.152 96.6449C192.152 43.8217 149.361 1 96.5761 1C43.7909 1 1 43.8217 1 96.6449C1 149.468 43.7909 192.29 96.5761 192.29Z" fill="#F1F3F9" stroke="#D6DCE8" stroke-width="2" stroke-miterlimit="10"/>
<path d="M183.758 40.248V152.112C183.758 156.213 180.384 159.59 176.286 159.59H16.8663C12.7685 159.59 9.3938 156.213 9.3938 152.112V40.248C9.3938 36.1473 12.7685 32.7701 16.8663 32.7701H176.286C180.384 32.7701 183.758 36.1473 183.758 40.248Z" fill="white" stroke="#D6DCE8" stroke-width="2" stroke-miterlimit="10"/>
<rect x="63.7808" y="55.8652" width="111.215" height="48.9346" rx="2" fill="#F1F3F9"/>
<rect x="63.7808" y="113.698" width="34.1059" height="35.5888" rx="2" fill="#F1F3F9"/>
<rect x="103.818" y="113.698" width="31.1402" height="35.5888" rx="2" fill="#F1F3F9"/>
<rect x="140.89" y="113.698" width="34.1059" height="35.5888" rx="2" fill="#F1F3F9"/>
<path d="M11.8807 42.5199H56.3667V158.183H15.8807C13.6716 158.183 11.8807 156.393 11.8807 154.183V42.5199Z" fill="#F1F3F9"/>
<path d="M19.2948 60.3152H43.0207" stroke="#D6DCE8" stroke-width="2" stroke-miterlimit="10"/>
<path d="M19.2948 72.1777H38.5721" stroke="#D6DCE8" stroke-width="2" stroke-miterlimit="10"/>
<path d="M19.2948 84.0404H44.5035" stroke="#D6DCE8" stroke-width="2" stroke-miterlimit="10"/>
<path d="M19.2948 95.9031H29.6749" stroke="#D6DCE8" stroke-width="2" stroke-miterlimit="10"/>
<path d="M19.2948 107.767H40.0549" stroke="#D6DCE8" stroke-width="2" stroke-miterlimit="10"/>
<path d="M19.2948 119.629H32.6406" stroke="#D6DCE8" stroke-width="2" stroke-miterlimit="10"/>
<path d="M183.758 40.2485V45.6761H9.39355V40.2485C9.39355 36.1478 12.7682 32.7706 16.8661 32.7706H176.286C180.384 32.7706 183.758 36.1478 183.758 40.2485Z" fill="#F1F3F9" stroke="#D6DCE8" stroke-width="2" stroke-miterlimit="10"/>
<path d="M17.227 41.5749C18.4917 41.5749 19.517 40.5489 19.517 39.2833C19.517 38.0177 18.4917 36.9917 17.227 36.9917C15.9623 36.9917 14.937 38.0177 14.937 39.2833C14.937 40.5489 15.9623 41.5749 17.227 41.5749Z" fill="#031849"/>
<path opacity="0.6" d="M24.3379 41.5749C25.6027 41.5749 26.6279 40.5489 26.6279 39.2833C26.6279 38.0177 25.6027 36.9917 24.3379 36.9917C23.0732 36.9917 22.048 38.0177 22.048 39.2833C22.048 40.5489 23.0732 41.5749 24.3379 41.5749Z" fill="#031849"/>
<path opacity="0.4" d="M31.5698 41.5749C32.8345 41.5749 33.8597 40.5489 33.8597 39.2833C33.8597 38.0177 32.8345 36.9917 31.5698 36.9917C30.305 36.9917 29.2798 38.0177 29.2798 39.2833C29.2798 40.5489 30.305 41.5749 31.5698 41.5749Z" fill="#031849"/>
<circle cx="57.5531" cy="67.9651" r="29.6573" fill="white" stroke="#031849" stroke-width="1.78995" stroke-miterlimit="10" stroke-linejoin="round"/>
<circle cx="77.8686" cy="161.892" r="39.2959" fill="white" stroke="#031849" stroke-width="1.78995" stroke-miterlimit="10" stroke-linejoin="round"/>
<circle cx="145.339" cy="49.9361" r="40.0374" fill="white" stroke="#031849" stroke-width="1.78995" stroke-miterlimit="10" stroke-linejoin="round"/>
<circle cx="166.841" cy="141.132" r="34.8474" fill="#F1F3F9" stroke="#031849" stroke-width="1.78995" stroke-miterlimit="10" stroke-linejoin="round" stroke-dasharray="3.58 3.58"/>
<g clip-path="url(#clip0_869_21704)">
<path d="M166.047 44.6934C165.2 44.6934 164.513 45.38 164.513 46.227C164.513 58.8471 154.282 69.0777 141.662 69.0777C140.815 69.0777 140.129 69.7643 140.129 70.6113C140.129 71.4583 140.815 72.1449 141.662 72.1449C155.976 72.1449 167.58 60.541 167.58 46.227C167.58 45.38 166.894 44.6934 166.047 44.6934Z" fill="#031849"/>
<path d="M156.79 54.5217C158.265 52.1158 159.691 48.9079 159.411 44.4169C158.83 35.1139 150.404 28.0566 142.447 28.8214C139.332 29.1208 136.134 31.6597 136.418 36.2074C136.542 38.1837 137.509 39.35 139.081 40.2468C140.577 41.1004 142.5 41.6411 144.679 42.2539C147.311 42.9943 150.364 43.8259 152.711 45.5553C155.524 47.6279 157.446 50.0307 156.79 54.5217Z" fill="#031849"/>
<path d="M126.856 38.254C125.381 40.6599 123.955 43.8678 124.236 48.3589C124.817 57.6618 133.243 64.7191 141.199 63.9543C144.314 63.6549 147.512 61.116 147.228 56.5683C147.105 54.5921 146.137 53.4257 144.565 52.5289C143.069 51.6753 141.147 51.1346 138.968 50.5218C136.335 49.7814 133.282 48.9498 130.935 47.2204C128.123 45.1477 126.2 42.745 126.856 38.254Z" fill="#031849"/>
</g>
<path d="M44.6072 61.6019H44.0693C43.9216 61.6019 43.78 61.6612 43.6756 61.7668C43.5712 61.8724 43.5126 62.0157 43.5126 62.165C43.5126 62.3144 43.5712 62.4576 43.6756 62.5632C43.78 62.6688 43.9216 62.7282 44.0693 62.7282H44.6072C44.7548 62.7282 44.8964 62.6688 45.0009 62.5632C45.1053 62.4576 45.1639 62.3144 45.1639 62.165C45.1639 62.0157 45.1053 61.8724 45.0009 61.7668C44.8964 61.6612 44.7548 61.6019 44.6072 61.6019ZM54.9004 69.8162H54.3625C54.2149 69.8162 54.0733 69.8755 53.9689 69.9811C53.8645 70.0867 53.8058 70.2299 53.8058 70.3793C53.8058 70.5287 53.8645 70.6719 53.9689 70.7775C54.0733 70.8831 54.2149 70.9424 54.3625 70.9424H54.9004C55.0481 70.9424 55.1897 70.8831 55.2941 70.7775C55.3985 70.6719 55.4572 70.5287 55.4572 70.3793C55.4572 70.2299 55.3985 70.0867 55.2941 69.9811C55.1897 69.8755 55.0481 69.8162 54.9004 69.8162ZM54.4494 64.4532C54.4494 64.3039 54.3908 64.1607 54.2864 64.055C54.182 63.9494 54.0404 63.8901 53.8927 63.8901H52.0323C51.8847 63.8901 51.7431 63.9494 51.6387 64.055C51.5343 64.1607 51.4756 64.3039 51.4756 64.4532C51.4756 64.6026 51.5343 64.7458 51.6387 64.8514C51.7431 64.9571 51.8847 65.0164 52.0323 65.0164H53.8927C54.0404 65.0164 54.182 64.9571 54.2864 64.8514C54.3908 64.7458 54.4494 64.6026 54.4494 64.4532ZM72.1068 60.9128L71.5407 57.6955C71.4637 57.1133 71.1737 56.5813 70.7279 56.2048C70.2822 55.8282 69.7131 55.6344 69.1329 55.6616H47.3273C47.1009 55.6534 46.8756 55.6981 46.669 55.7923C46.4624 55.8864 46.28 56.0274 46.136 56.2043C45.992 56.3813 45.8902 56.5894 45.8385 56.8126C45.7868 57.0357 45.7867 57.268 45.8381 57.4912L46.4347 60.9128C46.4396 60.9401 46.4459 60.967 46.4535 60.9936C46.524 61.4118 46.3149 61.5805 46.127 61.6423C46.0039 61.6871 45.9004 61.7743 45.8345 61.8886C45.7686 62.0029 45.7447 62.1371 45.7668 62.2675C45.7889 62.3979 45.8558 62.5163 45.9556 62.6018C46.0554 62.6873 46.1818 62.7346 46.3126 62.7353H70.6175C70.8432 62.7432 71.0677 62.6985 71.2736 62.6048C71.4796 62.5111 71.6615 62.3708 71.8054 62.1947C71.9493 62.0186 72.0513 61.8115 72.1035 61.5892C72.1558 61.367 72.1569 61.1356 72.1068 60.9128ZM64.6887 73.8199C64.4538 72.5725 63.7491 72.1091 62.9528 72.1091H57.1931C57.0446 72.1104 56.9026 72.1711 56.7983 72.278C56.6939 72.3848 56.6357 72.5292 56.6363 72.6794C56.635 72.8198 56.6856 72.9556 56.7782 73.0602C56.8708 73.1648 56.9986 73.2307 57.1367 73.2449C57.3199 73.2782 57.5172 73.5205 57.6417 74.1193L58.2337 77.4459C58.3419 77.9466 58.6138 78.3958 59.0055 78.7208C59.3972 79.0459 59.8858 79.228 60.3924 79.2375L63.8289 79.2209C64.0551 79.232 64.2807 79.1902 64.4884 79.0989C64.6961 79.0076 64.8802 78.8692 65.0264 78.6944C65.1727 78.5195 65.2772 78.313 65.3319 78.0907C65.3865 77.8684 65.3899 77.6364 65.3417 77.4126L64.6887 73.8199ZM57.0733 70.9828H63.3239C63.3708 70.9819 63.4174 70.9747 63.4625 70.9615C64.0403 70.8379 64.0685 70.3627 63.9934 69.8898L63.1971 65.4678C62.9786 64.3178 62.3185 63.864 61.4518 63.864H55.7273C55.5864 63.8655 55.4514 63.9211 55.3494 64.0194C55.2474 64.1177 55.186 64.2515 55.1777 64.3937C55.1694 64.536 55.2146 64.6762 55.3044 64.786C55.3942 64.8958 55.5218 64.9671 55.6615 64.9855C55.8518 65.0211 56.0608 65.2801 56.183 65.9359L56.7867 69.3196C56.803 69.3805 56.8066 69.4442 56.7973 69.5067C56.7879 69.5691 56.7659 69.6289 56.7326 69.6823C56.6992 69.7356 56.6553 69.7814 56.6036 69.8168C56.5518 69.8521 56.4934 69.8761 56.432 69.8874C56.3078 69.931 56.2029 70.0177 56.1361 70.1322C56.0692 70.2466 56.0448 70.3814 56.0671 70.5125C56.0894 70.6435 56.157 70.7622 56.2578 70.8475C56.3586 70.9328 56.4861 70.9791 56.6176 70.9781H57.0639L57.0733 70.9828Z" fill="#031849"/>
<path d="M175.376 127.337L173.658 129.056L169.077 124.472C167.806 123.2 165.756 123.211 164.496 124.472L159.915 129.056L158.197 127.337C157.438 126.577 156.408 126.15 155.334 126.15C154.26 126.15 153.23 126.577 152.471 127.337C151.711 128.097 151.285 129.128 151.285 130.202C151.285 131.277 151.711 132.308 152.471 133.068L154.189 134.787L149.608 139.371C149 139.979 148.659 140.804 148.659 141.663C148.659 142.523 149 143.348 149.608 143.955L153.96 148.311L155.678 146.591C157.395 144.872 160.144 144.872 161.862 146.591C163.58 148.311 163.58 151.061 161.862 152.78L160.144 154.499L164.496 158.855C165.103 159.462 165.927 159.804 166.787 159.804C167.646 159.804 168.47 159.462 169.077 158.855L173.429 154.499L171.711 152.78C169.993 151.061 169.993 148.311 171.711 146.591C173.429 144.872 176.178 144.872 177.896 146.591L179.613 148.311L183.965 143.955C184.573 143.348 184.914 142.523 184.914 141.663C184.914 140.804 184.573 139.979 183.965 139.371L179.384 134.787L181.102 133.068C181.862 132.308 182.288 131.277 182.288 130.202C182.288 129.128 181.862 128.097 181.102 127.337C180.343 126.577 179.313 126.15 178.239 126.15C177.165 126.15 176.135 126.577 175.376 127.337Z" fill="#D6DCE8"/>
<path d="M80.8687 162.417C78.9467 164.043 78.9467 166.68 80.8687 168.306C82.7908 169.933 85.9072 169.933 87.8293 168.306C89.7513 166.68 89.7513 164.043 87.8293 162.417C85.9072 160.791 82.7908 160.791 80.8687 162.417ZM86.072 166.823C85.1201 167.629 83.5779 167.629 82.626 166.823C81.6742 166.018 81.6742 164.713 82.626 163.908C83.5779 163.103 85.1201 163.103 86.072 163.908C87.0239 164.709 87.0239 166.018 86.072 166.823ZM87.7469 141.927L84.7311 144.479C84.1408 144.978 84.1408 145.799 84.7311 146.299L96.506 156.261C97.0963 156.76 98.0665 156.76 98.6568 156.261L101.673 153.709C102.263 153.21 102.263 152.389 101.673 151.89L89.8932 141.927C89.3028 141.428 88.3372 141.428 87.7469 141.927ZM66.6181 174.532C67.1535 174.079 67.1535 173.34 66.6181 172.887L65.0851 171.59C64.5496 171.137 63.6756 171.137 63.1401 171.59L59.9733 174.269L59.9688 174.273L59.0993 173.537C58.6187 173.131 57.8362 173.131 57.3603 173.537C56.8798 173.944 56.8798 174.606 57.3603 175.009L62.5772 179.422C63.0578 179.829 63.8403 179.829 64.3162 179.422C64.7922 179.016 64.7968 178.354 64.3162 177.951L63.4467 177.215L63.4513 177.212L66.6181 174.532ZM82.5711 149.253L75.8714 154.921C75.2765 155.425 75.2765 156.253 75.8714 156.757L80.0084 160.257C82.9326 158.476 87.033 158.696 89.6644 160.923L93.0142 158.088C93.6091 157.585 93.6091 156.757 93.0142 156.253L84.7403 149.253C84.1454 148.746 83.166 148.746 82.5711 149.253ZM78.2694 161.732L75.8256 159.664C75.2536 159.18 74.3155 159.18 73.7434 159.664L65.1262 166.959C64.5542 167.443 64.5542 168.237 65.1262 168.721L70.0092 172.852C70.5812 173.336 71.5193 173.336 72.0914 172.852L77.6333 168.155C76.4617 166.107 76.6723 163.633 78.2694 161.732Z" fill="#031849"/>
<defs>
<clipPath id="clip0_869_21704">
<rect width="43.3803" height="43.3803" fill="white" transform="translate(124.2 28.7646)"/>
</clipPath>
</defs>
</svg>
