<svg width="16" height="12" viewBox="0 0 16 12" fill="none" xmlns="http://www.w3.org/2000/svg">
<g clip-path="url(#clip0_2469_34526)">
<path d="M13.4122 1.00498C12.3719 0.528727 11.2738 0.190857 10.1457 0C9.99133 0.27595 9.85166 0.559867 9.72726 0.85056C8.52566 0.669492 7.30371 0.669492 6.10211 0.85056C5.97764 0.559897 5.83798 0.275984 5.68367 0C4.55489 0.192468 3.45598 0.531141 2.41468 1.00747C0.347435 4.066 -0.212963 7.04857 0.0672359 9.98879C1.27787 10.8833 2.63291 11.5635 4.07346 12C4.39783 11.5637 4.68486 11.1009 4.93149 10.6164C4.46304 10.4415 4.0109 10.2256 3.58031 9.97136C3.69364 9.88916 3.80447 9.80448 3.91157 9.72229C5.16449 10.3115 6.53199 10.617 7.91655 10.617C9.30111 10.617 10.6686 10.3115 11.9215 9.72229C12.0299 9.81071 12.1407 9.89539 12.2528 9.97136C11.8214 10.226 11.3684 10.4423 10.8991 10.6177C11.1454 11.1019 11.4325 11.5644 11.7571 12C13.1989 11.5653 14.555 10.8853 15.7659 9.99004C16.0946 6.58032 15.2042 3.62516 13.4122 1.00498ZM5.28641 8.18057C4.50559 8.18057 3.86051 7.47198 3.86051 6.60025C3.86051 5.72852 4.48318 5.0137 5.28392 5.0137C6.08467 5.0137 6.72477 5.72852 6.71107 6.60025C6.69737 7.47198 6.08218 8.18057 5.28641 8.18057ZM10.5467 8.18057C9.76462 8.18057 9.12203 7.47198 9.12203 6.60025C9.12203 5.72852 9.74469 5.0137 10.5467 5.0137C11.3487 5.0137 11.9838 5.72852 11.9701 6.60025C11.9564 7.47198 11.3425 8.18057 10.5467 8.18057Z" fill="#031849"/>
</g>
<defs>
<clipPath id="clip0_2469_34526">
<rect width="15.8331" height="12" fill="white"/>
</clipPath>
</defs>
</svg>
