<svg width="231" height="194" viewBox="0 0 231 194" fill="none" xmlns="http://www.w3.org/2000/svg">
<path d="M128.23 192.799C179.303 192.799 220.709 151.393 220.709 100.137C220.709 48.882 179.121 7.47632 128.23 7.47632C77.157 7.47632 35.7514 48.882 35.7514 100.137C35.7514 151.393 77.157 192.799 128.23 192.799Z" fill="#F1F4F9" stroke="#D6DCE8" stroke-width="2" stroke-miterlimit="10"/>
<path d="M214.689 39.4013C218.82 39.4013 222.168 36.0531 222.168 31.9228C222.168 27.7925 218.82 24.4442 214.689 24.4442C210.559 24.4442 207.211 27.7925 207.211 31.9228C207.211 36.0531 210.559 39.4013 214.689 39.4013Z" fill="#F1F4F9"/>
<path d="M225.633 10.2146C228.454 10.2146 230.741 7.92799 230.741 5.1073C230.741 2.28662 228.454 0 225.633 0C222.813 0 220.526 2.28662 220.526 5.1073C220.526 7.92799 222.813 10.2146 225.633 10.2146Z" fill="#F1F4F9"/>
<path d="M40.676 39.2166C43.4967 39.2166 45.7833 36.9299 45.7833 34.1093C45.7833 31.2886 43.4967 29.002 40.676 29.002C37.8553 29.002 35.5687 31.2886 35.5687 34.1093C35.5687 36.9299 37.8553 39.2166 40.676 39.2166Z" fill="#F1F4F9"/>
<path d="M9.48499 137.715C14.7234 137.715 18.97 133.468 18.97 128.23C18.97 122.991 14.7234 118.745 9.48499 118.745C4.24658 118.745 0 122.991 0 128.23C0 133.468 4.24658 137.715 9.48499 137.715Z" fill="#F1F4F9"/>
<path d="M191.159 53.8131L192.618 171.281C192.618 175.294 189.335 178.395 185.322 178.395H70.7723C66.7594 178.395 63.4762 175.112 63.4762 171.281V20.2508C63.4762 16.2379 66.7594 13.1371 70.7723 13.1371H153.766L191.159 53.8131Z" fill="white" stroke="#D6DCE8" stroke-width="2" stroke-miterlimit="10"/>
<path d="M119.292 154.862H96.8567C95.9447 154.862 95.2151 153.95 95.2151 152.855C95.2151 151.761 95.9447 150.849 96.8567 150.849H119.292C120.204 150.849 120.934 151.761 120.934 152.855C120.934 154.132 120.204 154.862 119.292 154.862Z" fill="#D6DCE8"/>
<path d="M106.524 154.862H82.0819C81.1698 154.862 80.4402 153.95 80.4402 152.855C80.4402 151.761 81.1698 150.849 82.0819 150.849H106.524C107.436 150.849 108.166 151.761 108.166 152.855C108.166 154.132 107.436 154.862 106.524 154.862Z" fill="#D6DCE8"/>
<path d="M137.715 37.7557H82.8115C81.5347 37.7557 80.4402 36.6613 80.4402 35.3844C80.4402 34.1076 81.5347 33.0132 82.8115 33.0132H137.715C138.992 33.0132 140.086 34.1076 140.086 35.3844C140.086 36.6613 138.992 37.7557 137.715 37.7557Z" fill="#D6DCE8"/>
<path d="M103.97 50.8918H82.8115C81.5347 50.8918 80.4402 49.7974 80.4402 48.5205C80.4402 47.2437 81.5347 46.1493 82.8115 46.1493H103.788C105.065 46.1493 106.159 47.2437 106.159 48.5205C106.159 49.7974 105.065 50.8918 103.97 50.8918Z" fill="#D6DCE8"/>
<path d="M153.766 13.1343V45.6021C153.766 50.1622 157.779 53.8103 162.339 53.8103H191.159" fill="#D6DCE8"/>
<path d="M126.869 123.295H111.019H104.048H82.968C82.1179 123.295 81.2679 124.148 81.2679 125.341C81.2679 126.364 81.9479 127.387 82.968 127.387H104.048H111.019H126.869C127.719 127.387 128.569 126.535 128.569 125.341C128.399 124.148 127.719 123.295 126.869 123.295Z" fill="#D6DCE8"/>
<path d="M124.877 108.462H101.416H93.4259H82.968C82.1179 108.462 81.2679 109.314 81.2679 110.508C81.2679 111.53 81.9479 112.553 82.968 112.553H93.4259H101.416H124.877C125.727 112.553 126.577 111.701 126.577 110.508C126.407 109.314 125.727 108.462 124.877 108.462Z" fill="#D6DCE8"/>
<path d="M136.323 93.4598H130.203H124.083H82.968C82.1179 93.4598 81.2679 94.3123 81.2679 95.5057C81.2679 96.5286 81.9479 97.5516 82.968 97.5516H124.083H130.883H136.153C137.003 97.5516 137.853 96.6991 137.853 95.5057C138.023 94.4828 137.173 93.4598 136.323 93.4598Z" fill="#D6DCE8"/>
<path d="M175.115 125.861H163.975H151.498H130.165C128.643 125.861 127.122 127.381 127.122 129.509C127.122 131.333 128.339 133.157 130.165 133.157H151.498H163.975H175.115C176.636 133.157 178.158 131.637 178.158 129.509C177.854 127.381 176.636 125.861 175.115 125.861Z" fill="#D6DCE8"/>
<path d="M175.109 107.619H147.618H133.288H128.348C126.823 107.619 125.299 109.139 125.299 111.267C125.299 113.091 126.519 114.915 128.348 114.915H133.288H147.618H175.109C176.634 114.915 178.158 113.395 178.158 111.267C177.853 109.139 176.634 107.619 175.109 107.619Z" fill="#D6DCE8"/>
<path d="M175.386 89.3785H164.452H153.518H137.45C135.931 89.3785 134.413 90.8986 134.413 93.0266C134.413 94.8506 135.628 96.6747 137.45 96.6747H153.518H165.667H175.082C176.6 96.6747 178.119 95.1547 178.119 93.0266C178.423 91.2026 176.904 89.3785 175.386 89.3785Z" fill="#D6DCE8"/>
<path d="M175.28 78.6261H155.39H150.46H82.968C82.1179 78.6261 81.2679 79.4785 81.2679 80.672C81.2679 81.6949 81.9479 82.7178 82.968 82.7178H150.46H155.39H175.11C176.3 82.7178 176.98 81.8654 176.98 80.672C176.98 79.649 176.3 78.6261 175.28 78.6261Z" fill="#D6DCE8"/>
<path d="M226.829 170.01L207.786 150.639C205.833 148.652 203.025 147.907 200.462 148.404L195.823 143.685C209.007 127.047 207.908 102.585 192.771 87.1877C180.076 74.274 161.155 71.418 145.774 78.7441C141.501 80.7308 137.473 83.5868 133.811 87.1877C129.294 91.6579 126.12 96.9972 124.167 102.709C123.19 105.441 122.458 108.173 122.092 111.029C120.261 123.818 124.167 137.353 133.811 147.162C134.055 147.411 134.177 147.535 134.421 147.783C142.478 155.73 152.854 159.579 163.352 159.579C172.629 159.579 181.907 156.475 189.475 150.266L194.114 154.985C193.626 157.593 194.358 160.448 196.311 162.435L215.232 181.806C218.406 185.034 223.533 185.034 226.707 181.806C230.003 178.577 230.003 173.238 226.829 170.01ZM186.79 141.078C185.325 142.568 183.738 143.81 182.151 145.051C180.564 146.169 178.977 147.038 177.39 147.783C168.601 152.005 158.225 152.005 149.436 147.783C146.018 146.169 142.844 143.934 140.036 141.078C131.98 132.883 128.928 121.583 130.881 111.029C131.369 108.173 132.224 105.317 133.567 102.709C135.153 99.3565 137.351 96.128 140.036 93.3963C141.867 91.5337 143.821 89.9195 145.896 88.6778C151.267 85.201 157.37 83.5868 163.474 83.5868C172.019 83.5868 180.442 86.8152 186.912 93.3963C199.729 106.558 199.729 127.916 186.79 141.078Z" fill="#F1F4F9" stroke="#031849" stroke-width="2" stroke-miterlimit="10"/>
</svg>
