<svg width="167" height="140" viewBox="0 0 167 140" fill="none" xmlns="http://www.w3.org/2000/svg">
<path d="M104.447 1.81275C82.5735 -1.01681 64.646 9.75962 45.343 27.901C29.6789 42.6107 4.23983 43.5806 2.73753 67.0333C0.914727 95.5831 48.2274 97.8775 62.1621 111.678C99.2057 148.469 147.166 143.592 159.558 109.818C170.595 79.7563 152.628 65.7556 146.291 46.4102C137.124 18.5226 127.529 4.79617 104.447 1.81275Z" fill="#F0F0F0"/>
<path d="M73.7666 86.4924L52.1201 113.651C50.9593 115.096 49.2751 116.022 47.4349 116.228C45.5948 116.434 43.7483 115.901 42.2983 114.748C40.8544 113.585 39.9282 111.897 39.7218 110.052C39.5154 108.207 40.0456 106.356 41.1966 104.901L62.8432 77.7495" fill="white"/>
<path d="M92.856 97.3157C112.485 97.3157 128.397 81.3739 128.397 61.7086C128.397 42.0434 112.485 26.1016 92.856 26.1016C73.2271 26.1016 57.3147 42.0434 57.3147 61.7086C57.3147 81.3739 73.2271 97.3157 92.856 97.3157Z" fill="white"/>
<path d="M76.9916 93.0279L55.3517 120.18C54.1908 121.627 52.5052 122.555 50.6634 122.76C48.8217 122.966 46.9736 122.432 45.5233 121.277C44.0788 120.114 43.1528 118.425 42.9476 116.58C42.7424 114.735 43.2747 112.883 44.4282 111.43L67.5705 82.3116" fill="white"/>
<path d="M61.5479 31.1253C56.29 37.6987 53.4166 45.8662 53.3983 54.2898C53.38 62.7133 56.2181 70.8934 61.4473 77.4895C66.6766 84.0857 73.9871 88.707 82.1809 90.5961C90.3748 92.4852 98.9661 91.5301 106.547 87.8873C114.128 84.2446 120.25 78.1302 123.909 70.5459C127.567 62.9617 128.546 54.3573 126.685 46.1427C124.824 37.9281 120.233 30.5903 113.665 25.3316C107.097 20.0729 98.9404 17.2051 90.5324 17.1982C84.9644 17.1727 79.4632 18.4128 74.4428 20.8251C69.4223 23.2374 65.0134 26.7592 61.5479 31.1253ZM90.5324 20.2351C98.2357 20.2481 105.706 22.881 111.721 27.7028C117.736 32.5245 121.938 39.2494 123.64 46.7762C125.342 54.303 124.443 62.1858 121.09 69.1337C117.737 76.0817 112.128 81.6832 105.182 85.021C98.2369 88.3588 90.3659 89.2352 82.8583 87.5065C75.3508 85.7779 68.6515 81.5467 63.8574 75.5058C59.0634 69.465 56.4586 61.9723 56.4696 54.2548C56.4807 46.5373 59.1068 39.0521 63.9182 33.025C67.1123 29.0293 71.163 25.8049 75.7701 23.5908C80.3772 21.3768 85.4226 20.2299 90.5324 20.2351Z" fill="#D9D9D9"/>
<path d="M46.6383 117.424C45.1085 117.417 43.6115 116.979 42.3187 116.159C41.0259 115.34 39.9895 114.172 39.3283 112.79C38.6671 111.408 38.4078 109.867 38.5799 108.344C38.7521 106.821 39.3489 105.378 40.3019 104.179L61.9418 77.0271L63.7446 78.4653L42.098 105.624C41.1694 106.84 40.7534 108.372 40.9392 109.892C41.1249 111.411 41.8977 112.798 43.0917 113.753C44.2858 114.709 45.8061 115.158 47.3265 115.004C48.847 114.849 50.2467 114.104 51.2254 112.928L72.8653 85.7767L74.668 87.2149L53.0214 114.387C52.3544 115.225 51.5284 115.922 50.591 116.439C49.6536 116.956 48.6233 117.281 47.5597 117.397C47.2533 117.423 46.9457 117.431 46.6383 117.424Z" fill="#D9D9D9"/>
<path d="M95.3231 49.0024L85 57.223L86.7907 59.48L97.1137 51.2593L95.3231 49.0024Z" fill="#D9D9D9"/>
<path d="M86.7912 49L85.0009 51.2573L95.3254 59.4761L97.1156 57.2188L86.7912 49Z" fill="#D9D9D9"/>
<path d="M73.0389 47.9354C72.7227 47.9344 72.4128 47.8465 72.143 47.6814C71.8732 47.5162 71.6537 47.2801 71.5084 46.9988C71.3632 46.7174 71.2977 46.4015 71.3192 46.0854C71.3406 45.7694 71.4481 45.4653 71.63 45.2062C71.9839 44.7045 72.3445 44.2162 72.7317 43.7345C77.6783 37.5095 84.8761 33.4905 92.7625 32.5501C92.9874 32.5224 93.2155 32.5394 93.4339 32.6C93.6523 32.6607 93.8565 32.7639 94.0351 32.9036C94.2137 33.0434 94.363 33.217 94.4746 33.4146C94.5862 33.6122 94.6578 33.8298 94.6854 34.0551C94.7131 34.2805 94.6961 34.509 94.6356 34.7278C94.575 34.9466 94.472 35.1512 94.3325 35.3301C94.193 35.509 94.0197 35.6586 93.8225 35.7704C93.6253 35.8822 93.408 35.954 93.1831 35.9817C86.1996 36.8231 79.8282 40.3872 75.4492 45.9019C75.1087 46.3233 74.7815 46.7581 74.4744 47.1996C74.3132 47.4303 74.0981 47.6179 73.8479 47.7462C73.5976 47.8744 73.3199 47.9394 73.0389 47.9354Z" fill="white"/>
</svg>
