<svg width="146" height="34" viewBox="0 0 146 34" fill="none" xmlns="http://www.w3.org/2000/svg">
<path d="M50.8932 22.5747H50.1447C49.7457 22.5747 49.4195 22.4087 49.1428 22.0679C48.8574 21.7184 48.7118 21.2728 48.7118 20.7456V15.5526H50.3428C50.7097 15.5526 51.0156 15.442 51.2515 15.2264C51.4932 15.0051 51.6126 14.7226 51.6126 14.3906C51.6126 14.0294 51.4903 13.7352 51.2515 13.511C51.0156 13.2955 50.7097 13.1848 50.3428 13.1848H48.7118V10.2548C48.7118 9.86743 48.5836 9.54705 48.3331 9.29366C48.0827 9.04319 47.7594 8.91504 47.372 8.91504C46.9846 8.91504 46.6614 9.04319 46.4109 9.29366C46.1604 9.54414 46.0323 9.86743 46.0323 10.2548V13.1848H45.2575C44.8905 13.1848 44.5818 13.2955 44.3488 13.511C44.1071 13.7323 43.9877 14.0294 43.9877 14.3906C43.9877 14.7226 44.11 15.0022 44.3488 15.2264C44.5847 15.4449 44.8905 15.5526 45.2575 15.5526H46.0323V20.7456C46.0323 21.5874 46.2128 22.3563 46.5652 23.032C46.9206 23.7106 47.4128 24.2552 48.0331 24.6513C48.6564 25.0474 49.3642 25.2484 50.1418 25.2484H50.5379C50.9748 25.2484 51.3418 25.1261 51.6272 24.8843C51.9243 24.6338 52.0728 24.3047 52.0728 23.9115C52.0728 23.53 51.9592 23.2125 51.7379 22.9621C51.5136 22.7058 51.2282 22.5747 50.8932 22.5747Z" fill="white"/>
<path d="M62.7823 13.0798C62.3134 12.7681 61.6056 12.6108 60.6824 12.6108C59.7649 12.6108 58.9116 12.8293 58.1485 13.2574C57.8106 13.4467 57.499 13.6681 57.2223 13.9186C57.1961 13.5661 57.0825 13.2895 56.8845 13.0885C56.6544 12.8613 56.3223 12.7448 55.8913 12.7448C55.4748 12.7448 55.1457 12.8642 54.9098 13.1001C54.6739 13.3361 54.5544 13.6652 54.5544 14.0817V23.9114C54.5544 24.3424 54.6739 24.6803 54.9127 24.9075C55.1486 25.1346 55.4777 25.2482 55.8913 25.2482C56.3223 25.2482 56.6573 25.1288 56.8874 24.89C57.1145 24.6541 57.2281 24.325 57.2281 23.9114V17.4893C57.2281 16.8835 57.4233 16.3767 57.8077 15.9835C58.2038 15.5787 58.7601 15.2991 59.4591 15.1476C60.1698 14.9933 60.9882 15.0078 61.8852 15.1913C62.1066 15.2437 62.3163 15.2496 62.5085 15.2146C62.7124 15.1768 62.8959 15.0894 63.0531 14.9496C63.2162 14.8069 63.3269 14.6059 63.3793 14.3554C63.5046 13.8574 63.3036 13.4263 62.7823 13.0798Z" fill="white"/>
<path d="M75.7863 18.8439C75.763 17.7138 75.4804 16.677 74.9533 15.7653C74.3999 14.81 73.6426 14.0441 72.7019 13.4907C71.7612 12.9373 70.6835 12.6548 69.5011 12.6548C68.3215 12.6548 67.241 12.9344 66.2915 13.4907C65.342 14.0441 64.5818 14.81 64.0285 15.7653C63.4751 16.7206 63.1926 17.8128 63.1926 19.007C63.1926 20.2011 63.4489 21.2845 63.9586 22.2311C64.4682 23.1806 65.1731 23.9437 66.0526 24.497C66.9381 25.0533 67.9487 25.3358 69.0613 25.3358C70.1738 25.3358 71.1845 25.0533 72.0699 24.497C72.431 24.2699 72.766 24.0048 73.0689 23.7078V23.9116C73.0689 24.299 73.1999 24.6252 73.4562 24.8815C73.7126 25.1407 74.0417 25.2689 74.4261 25.2689C74.8135 25.2689 75.1397 25.1378 75.396 24.8815C75.6552 24.6223 75.7833 24.2961 75.7833 23.9116V18.9167L75.7863 18.8439ZM73.1592 19.007C73.1592 19.7409 72.999 20.4079 72.6815 20.9933C72.367 21.5758 71.9272 22.0418 71.3796 22.3767C70.835 22.7117 70.203 22.8806 69.504 22.8806C68.8166 22.8806 68.1904 22.7117 67.6371 22.3767C67.0808 22.0418 66.6381 21.5758 66.3148 20.9904C65.9915 20.405 65.8284 19.738 65.8284 19.0041C65.8284 18.2555 65.9915 17.5827 66.3148 16.9973C66.6381 16.4148 67.0808 15.9488 67.6371 15.6139C68.1904 15.279 68.8195 15.11 69.504 15.11C70.203 15.11 70.835 15.279 71.3796 15.6139C71.9272 15.9488 72.3641 16.4148 72.6815 16.9973C72.999 17.5857 73.1592 18.2614 73.1592 19.007Z" fill="white"/>
<path d="M86.2132 13.1732C85.4676 12.8296 84.6346 12.6577 83.7376 12.6577C82.5434 12.6577 81.4658 12.9315 80.5396 13.4703C79.6105 14.0091 78.8708 14.7693 78.3407 15.7275C77.8106 16.6828 77.5397 17.7866 77.5397 19.0099C77.5397 20.204 77.8135 21.2904 78.3523 22.2399C78.8911 23.1893 79.6455 23.9495 80.595 24.5058C81.5444 25.0592 82.6366 25.3417 83.8482 25.3417C85.4851 25.3417 86.8714 24.8233 87.9752 23.7981C88.2345 23.5388 88.3451 23.2418 88.3073 22.9097C88.2694 22.5923 88.1005 22.3069 87.8063 22.0622C87.5675 21.8583 87.285 21.771 86.9733 21.7972C86.6763 21.8234 86.3908 21.9486 86.1171 22.17C85.82 22.4146 85.4851 22.5952 85.1297 22.7117C84.7657 22.8282 84.3346 22.8864 83.8511 22.8864C83.123 22.8864 82.4764 22.7175 81.9289 22.3826C81.3813 22.0476 80.9474 21.5875 80.6386 21.0108C80.3299 20.4341 80.1726 19.7613 80.1726 19.0128C80.1726 18.2206 80.327 17.5245 80.6299 16.9449C80.9299 16.3712 81.3522 15.9197 81.8823 15.5993C82.4153 15.279 83.0386 15.1159 83.7376 15.1159C84.7336 15.1159 85.5812 15.477 86.251 16.1906C86.4899 16.4294 86.7578 16.5809 87.052 16.6391C87.3665 16.7032 87.6607 16.642 87.9199 16.4556C88.2315 16.2314 88.4238 15.9634 88.4966 15.6576C88.5723 15.3314 88.482 15.0168 88.2257 14.7227C87.6374 14.0353 86.9588 13.5169 86.2132 13.1732Z" fill="white"/>
<path d="M99.3658 13.4499C98.5095 12.9227 97.4756 12.6548 96.2931 12.6548C95.099 12.6548 94.0214 12.9286 93.0952 13.4674C92.1661 14.0062 91.4321 14.7634 90.9079 15.7129C90.3836 16.6595 90.1186 17.7692 90.1186 19.007C90.1186 20.2331 90.3982 21.3341 90.9545 22.2835C91.5079 23.233 92.2855 23.9874 93.267 24.5262C94.2427 25.065 95.3728 25.3358 96.6251 25.3358C97.3241 25.3358 98.0639 25.2048 98.8241 24.9485C99.5872 24.6922 100.237 24.3543 100.752 23.9437C101.067 23.7048 101.215 23.4049 101.198 23.0583C101.18 22.7292 101.017 22.4292 100.717 22.1641C100.481 21.9661 100.202 21.867 99.8871 21.8758C99.5813 21.8845 99.2959 21.9865 99.0367 22.1758C98.7629 22.3797 98.3959 22.5661 97.9445 22.7233C97.496 22.8806 97.0533 22.9622 96.628 22.9622C95.8388 22.9622 95.131 22.7874 94.5252 22.4437C93.9194 22.1 93.4389 21.6253 93.0952 21.0341C92.9117 20.7195 92.7748 20.3729 92.6903 20.006H100.764C101.119 20.006 101.419 19.8924 101.655 19.6652C101.894 19.4351 102.013 19.1468 102.013 18.8002C102.013 17.6119 101.786 16.5459 101.34 15.6285C100.883 14.7139 100.222 13.9771 99.3658 13.4499ZM99.4648 17.7808H92.7136C92.7864 17.4866 92.8855 17.207 93.0107 16.9449C93.2961 16.3508 93.7214 15.8789 94.2747 15.5382C94.8281 15.1974 95.5067 15.0227 96.2931 15.0227C96.9746 15.0227 97.56 15.1799 98.0319 15.4887C98.5066 15.8003 98.8765 16.2313 99.1357 16.7672C99.2843 17.0789 99.3949 17.4196 99.4648 17.7808Z" fill="white"/>
<path d="M109.533 22.5747H108.785C108.386 22.5747 108.06 22.4087 107.783 22.0679C107.497 21.7184 107.352 21.2728 107.352 20.7456V15.5526H108.983C109.35 15.5526 109.656 15.442 109.892 15.2264C110.133 15.0051 110.253 14.7226 110.253 14.3906C110.253 14.0294 110.13 13.7352 109.892 13.511C109.656 13.2955 109.35 13.1848 108.983 13.1848H107.352V10.2548C107.352 9.86743 107.224 9.54705 106.973 9.29366C106.723 9.04319 106.399 8.91504 106.012 8.91504C105.625 8.91504 105.301 9.04319 105.051 9.29366C104.8 9.54414 104.672 9.86743 104.672 10.2548V13.1848H103.898C103.531 13.1848 103.222 13.2955 102.989 13.511C102.747 13.7323 102.628 14.0294 102.628 14.3906C102.628 14.7226 102.75 15.0022 102.989 15.2264C103.225 15.4449 103.531 15.5526 103.898 15.5526H104.672V20.7456C104.672 21.5874 104.853 22.3563 105.205 23.032C105.561 23.7106 106.053 24.2552 106.673 24.6513C107.297 25.0474 108.004 25.2484 108.782 25.2484H109.178C109.615 25.2484 109.982 25.1261 110.267 24.8843C110.564 24.6338 110.713 24.3047 110.713 23.9115C110.713 23.53 110.599 23.2096 110.378 22.9621C110.151 22.7058 109.865 22.5747 109.533 22.5747Z" fill="white"/>
<path d="M121.399 13.4499C120.543 12.9227 119.509 12.6548 118.326 12.6548C117.132 12.6548 116.055 12.9286 115.128 13.4674C114.199 14.0062 113.465 14.7634 112.938 15.7129C112.414 16.6595 112.149 17.7692 112.149 19.007C112.149 20.2331 112.429 21.3341 112.985 22.2835C113.538 23.233 114.316 23.9874 115.297 24.5262C116.273 25.065 117.403 25.3358 118.655 25.3358C119.354 25.3358 120.094 25.2048 120.854 24.9485C121.617 24.6922 122.267 24.3543 122.782 23.9437C123.097 23.7048 123.246 23.4049 123.228 23.0583C123.211 22.7292 123.048 22.4292 122.748 22.1641C122.512 21.9661 122.235 21.867 121.917 21.8758C121.612 21.8845 121.326 21.9865 121.067 22.1758C120.793 22.3797 120.426 22.5661 119.975 22.7233C119.526 22.8806 119.084 22.9622 118.658 22.9622C117.869 22.9622 117.161 22.7874 116.556 22.4437C115.95 22.1 115.469 21.6253 115.126 21.037C114.942 20.7224 114.805 20.3758 114.721 20.0089H122.794C123.149 20.0089 123.449 19.8953 123.685 19.6681C123.924 19.438 124.044 19.1497 124.044 18.8031C124.044 17.6148 123.816 16.5488 123.371 15.6314C122.919 14.7139 122.255 13.9771 121.399 13.4499ZM114.75 17.7808C114.823 17.4866 114.922 17.207 115.047 16.9449C115.332 16.3508 115.758 15.8789 116.311 15.5382C116.864 15.1974 117.543 15.0227 118.329 15.0227C119.011 15.0227 119.596 15.1799 120.068 15.4887C120.543 15.8003 120.913 16.2313 121.172 16.7672C121.32 17.0789 121.431 17.4167 121.501 17.7779H114.75V17.7808Z" fill="white"/>
<path d="M133.868 18.5555C133.213 18.2089 132.313 17.9206 131.197 17.6963C130.422 17.5391 129.831 17.376 129.438 17.2158C129.074 17.0672 128.835 16.9041 128.721 16.7323C128.608 16.5605 128.553 16.3653 128.553 16.1469C128.553 15.8119 128.724 15.5731 129.091 15.3925C129.502 15.1887 130.02 15.0867 130.623 15.0867C131.153 15.0867 131.625 15.1508 132.027 15.2731C132.415 15.3925 132.782 15.6197 133.122 15.9459C133.376 16.1818 133.69 16.3362 134.054 16.4032C134.439 16.4731 134.779 16.409 135.077 16.2051C135.368 15.9867 135.525 15.7071 135.545 15.3809C135.563 15.0605 135.449 14.7576 135.205 14.478C134.742 13.9072 134.11 13.4557 133.332 13.1353C132.56 12.8179 131.663 12.6548 130.667 12.6548C129.895 12.6548 129.144 12.78 128.433 13.0305C127.708 13.2839 127.105 13.6771 126.642 14.1955C126.164 14.7285 125.923 15.4071 125.923 16.2139C125.923 17.1313 126.287 17.9177 127.003 18.5468C127.699 19.1584 128.82 19.6215 130.341 19.9215C131.442 20.1195 132.205 20.37 132.604 20.67C132.974 20.9467 133.148 21.2554 133.134 21.6137C133.122 21.9719 132.933 22.2602 132.554 22.4962C132.147 22.7495 131.535 22.8777 130.734 22.8777C130.096 22.8777 129.511 22.7612 128.992 22.534C128.477 22.3068 128.101 22.0622 127.871 21.8088C127.626 21.5496 127.332 21.3952 126.991 21.3515C126.642 21.3078 126.29 21.4243 125.949 21.6952C125.649 21.9253 125.471 22.2282 125.427 22.5923C125.381 22.9651 125.497 23.3 125.771 23.5913C126.278 24.098 126.991 24.5203 127.891 24.8465C128.786 25.1698 129.77 25.3329 130.821 25.3329C131.893 25.3329 132.802 25.164 133.527 24.8262C134.261 24.4854 134.826 24.0223 135.208 23.4427C135.592 22.8631 135.787 22.2049 135.787 21.4855C135.787 20.8564 135.636 20.2943 135.333 19.8079C135.033 19.3361 134.541 18.9109 133.868 18.5555Z" fill="white"/>
<path d="M144.92 22.9621C144.69 22.7058 144.405 22.5747 144.073 22.5747H143.324C142.925 22.5747 142.599 22.4087 142.322 22.0679C142.037 21.7184 141.891 21.2728 141.891 20.7456V15.5526H143.522C143.889 15.5526 144.195 15.442 144.431 15.2264C144.673 15.0051 144.792 14.7226 144.792 14.3906C144.792 14.0294 144.67 13.7352 144.431 13.511C144.195 13.2955 143.889 13.1848 143.522 13.1848H141.891V10.2548C141.891 9.86743 141.763 9.54705 141.513 9.29366C141.262 9.04319 140.939 8.91504 140.552 8.91504C140.164 8.91504 139.841 9.04319 139.59 9.29366C139.34 9.54414 139.212 9.86743 139.212 10.2548V13.1848H138.437C138.07 13.1848 137.761 13.2955 137.528 13.511C137.287 13.7323 137.167 14.0294 137.167 14.3906C137.167 14.7226 137.29 15.0022 137.528 15.2264C137.764 15.4449 138.07 15.5526 138.437 15.5526H139.218V20.7456C139.218 21.5874 139.398 22.3563 139.751 23.032C140.106 23.7106 140.598 24.2552 141.218 24.6513C141.842 25.0474 142.549 25.2484 143.327 25.2484H143.723C144.16 25.2484 144.527 25.1261 144.813 24.8843C145.11 24.6338 145.258 24.3047 145.258 23.9115C145.258 23.53 145.145 23.2125 144.92 22.9621Z" fill="white"/>
<path d="M25.6125 13.1181C25.6125 12.6667 25.4349 12.2414 25.1145 11.924C24.4534 11.2658 23.3815 11.2687 22.7233 11.9298L17.3497 17.3296L14.4285 14.4258C14.1081 14.1084 13.6858 13.9336 13.2373 13.9336C13.2344 13.9336 13.2344 13.9336 13.2315 13.9336C12.78 13.9336 12.3548 14.1113 12.0373 14.4317C11.3791 15.0928 11.382 16.1675 12.0432 16.8228L17.3585 22.1119L25.1174 14.3152C25.4378 13.9948 25.6125 13.5696 25.6125 13.1181Z" fill="white"/>
<path d="M8.98218 8.53374C8.60646 8.15802 7.99775 8.15802 7.62495 8.53374L0 16.1587L2.03584 18.1945C2.21642 18.3751 2.45816 18.477 2.71446 18.477C2.97076 18.477 3.2125 18.378 3.39307 18.1945C3.76587 17.8217 3.76587 17.2101 3.39307 16.8373L2.71446 16.1587L2.7698 16.1004L8.97926 9.89097C9.35789 9.51817 9.35789 8.90945 8.98218 8.53374Z" fill="white"/>
<path d="M33.2058 17.0644C33.4621 17.0644 33.7039 16.9654 33.8844 16.7819L37.1814 13.4849L23.6965 0L17.3297 6.36674L13.5202 2.55718L10.3193 5.75803C10.1387 5.93861 10.0368 6.18034 10.0368 6.43664C10.0368 6.69294 10.1358 6.93468 10.3193 7.11526C10.6921 7.49097 11.3037 7.49097 11.6765 7.11526L13.5202 5.27164L17.3297 9.0812L23.6965 2.71446L23.7547 2.7698L34.4669 13.482L32.5272 15.4217C32.1515 15.7945 32.1515 16.4062 32.5272 16.779C32.7107 16.9624 32.9495 17.0644 33.2058 17.0644Z" fill="white"/>
<path d="M4.9043 20.714L17.3465 33.1562L20.3959 30.1068C20.7716 29.7311 20.7716 29.1224 20.3959 28.7496C20.2154 28.569 19.9736 28.4671 19.7173 28.4671C19.461 28.4671 19.2193 28.5661 19.0387 28.7496L17.3465 30.4418L17.2883 30.3864L6.26152 19.3567C6.07512 19.1703 5.82756 19.0771 5.58291 19.0771C5.33826 19.0771 5.0907 19.1703 4.9043 19.3567C4.53149 19.7296 4.53149 20.3412 4.9043 20.714Z" fill="white"/>
<path d="M30.4239 17.7661C30.1793 17.7661 29.9317 17.8593 29.7453 18.0457L21.7475 26.0435C21.3718 26.4163 21.3718 27.0279 21.7475 27.4007C21.9281 27.5813 22.1699 27.6832 22.4262 27.6832C22.6825 27.6832 22.9242 27.5842 23.1048 27.4007L31.1025 19.4029C31.4782 19.0301 31.4782 18.4185 31.1025 18.0457C30.9161 17.8593 30.6686 17.7661 30.4239 17.7661Z" fill="white"/>
<path d="M15.1072 25.4789L17.3062 27.6778L24.0574 20.9266C24.4331 20.5509 24.4331 19.9422 24.0574 19.5694C23.6817 19.1937 23.0729 19.1937 22.7001 19.5694L17.3062 24.9633L16.4645 24.1216C16.2781 23.9352 16.0305 23.842 15.7858 23.842C15.5412 23.842 15.2936 23.9352 15.1072 24.1216C14.7315 24.4944 14.7315 25.1032 15.1072 25.4789Z" fill="white"/>
<path d="M23.6523 5.45508L21.8116 7.29578C21.4359 7.6715 21.4359 8.28021 21.8116 8.65301C21.9921 8.83359 22.2339 8.93553 22.4902 8.93553C22.7465 8.93553 22.9882 8.8365 23.1688 8.65301L23.6523 8.16954L23.7105 8.22487L28.8744 13.3888L25.3415 16.9245C24.9658 17.2973 24.9658 17.909 25.3415 18.2818C25.5221 18.4623 25.7638 18.5643 26.0201 18.5643C26.2764 18.5643 26.5182 18.4653 26.6988 18.2818L31.5889 13.3917L23.6523 5.45508Z" fill="white"/>
<path d="M20.3756 11.4317C20.7513 11.0589 20.7513 10.4473 20.3756 10.0745C20.0028 9.69876 19.3912 9.69876 19.0184 10.0745L17.335 11.7579L13.54 7.96582L5.54803 15.9577L12.3371 22.7468C12.5177 22.9274 12.7594 23.0293 13.0157 23.0293C13.272 23.0293 13.5137 22.9303 13.6943 22.7468C14.07 22.374 14.07 21.7624 13.6943 21.3896L8.26249 15.9577L8.31783 15.8995L13.537 10.6803L17.335 14.4753L20.3756 11.4317Z" fill="white"/>
</svg>
