<svg width="167" height="38" viewBox="0 0 167 38" fill="none" xmlns="http://www.w3.org/2000/svg">
<g clip-path="url(#clip0_525_3743)">
<path d="M58.3234 25.8707H57.4656C57.0083 25.8707 56.6345 25.6805 56.3174 25.29C55.9903 24.8894 55.8235 24.3788 55.8235 23.7746V17.8235H57.6926C58.1131 17.8235 58.4636 17.6966 58.734 17.4496C59.011 17.196 59.1478 16.8722 59.1478 16.4917C59.1478 16.0778 59.0076 15.7407 58.734 15.4837C58.4636 15.2367 58.1131 15.1099 57.6926 15.1099H55.8235V11.7522C55.8235 11.3082 55.6766 10.9411 55.3896 10.6507C55.1025 10.3637 54.732 10.2168 54.2881 10.2168C53.8442 10.2168 53.4737 10.3637 53.1867 10.6507C52.8996 10.9377 52.7528 11.3082 52.7528 11.7522V15.1099H51.8649C51.4444 15.1099 51.0906 15.2367 50.8235 15.4837C50.5465 15.7374 50.4097 16.0778 50.4097 16.4917C50.4097 16.8722 50.5499 17.1926 50.8235 17.4496C51.0939 17.7 51.4444 17.8235 51.8649 17.8235H52.7528V23.7746C52.7528 24.7392 52.9597 25.6204 53.3636 26.3948C53.7708 27.1724 54.3348 27.7966 55.0458 28.2505C55.76 28.7045 56.5711 28.9348 57.4623 28.9348H57.9162C58.4169 28.9348 58.8374 28.7946 59.1645 28.5175C59.505 28.2305 59.6752 27.8533 59.6752 27.4027C59.6752 26.9655 59.545 26.6017 59.2914 26.3146C59.0343 26.0209 58.7073 25.8707 58.3234 25.8707Z" fill="white"/>
<path d="M71.9481 14.9898C71.4107 14.6326 70.5997 14.4524 69.5416 14.4524C68.4902 14.4524 67.5123 14.7027 66.6378 15.1934C66.2506 15.4103 65.8935 15.664 65.5764 15.951C65.5464 15.5472 65.4162 15.2301 65.1892 14.9998C64.9255 14.7394 64.545 14.6059 64.0511 14.6059C63.5738 14.6059 63.1966 14.7428 62.9262 15.0131C62.6559 15.2835 62.519 15.6606 62.519 16.1379V27.4028C62.519 27.8967 62.6559 28.2839 62.9296 28.5443C63.1999 28.8046 63.5771 28.9348 64.0511 28.9348C64.545 28.9348 64.9289 28.7979 65.1926 28.5242C65.4529 28.2539 65.5831 27.8767 65.5831 27.4028V20.0431C65.5831 19.3488 65.8067 18.7681 66.2473 18.3175C66.7012 17.8535 67.3387 17.5331 68.1398 17.3596C68.9542 17.1827 69.8921 17.1993 70.9201 17.4096C71.1738 17.4697 71.4141 17.4764 71.6344 17.4363C71.868 17.3929 72.0783 17.2928 72.2585 17.1326C72.4454 16.969 72.5723 16.7387 72.6323 16.4517C72.7759 15.8809 72.5456 15.387 71.9481 14.9898Z" fill="white"/>
<path d="M86.8508 21.5951C86.8241 20.3001 86.5003 19.1118 85.8962 18.0671C85.262 16.9724 84.3942 16.0945 83.3161 15.4604C82.238 14.8262 81.0031 14.5024 79.648 14.5024C78.2962 14.5024 77.0579 14.8229 75.9698 15.4604C74.8817 16.0945 74.0106 16.9724 73.3764 18.0671C72.7422 19.1619 72.4185 20.4136 72.4185 21.782C72.4185 23.1505 72.7122 24.3921 73.2963 25.4769C73.8804 26.565 74.6881 27.4395 75.6961 28.0736C76.7108 28.7111 77.869 29.0349 79.144 29.0349C80.419 29.0349 81.5772 28.7111 82.5918 28.0736C83.0057 27.8133 83.3896 27.5096 83.7367 27.1691V27.4027C83.7367 27.8467 83.8869 28.2205 84.1806 28.5142C84.4743 28.8113 84.8515 28.9581 85.2921 28.9581C85.736 28.9581 86.1098 28.8079 86.4035 28.5142C86.7006 28.2172 86.8474 27.8433 86.8474 27.4027V21.6785L86.8508 21.5951ZM83.8402 21.782C83.8402 22.6231 83.6566 23.3875 83.2928 24.0583C82.9323 24.7259 82.4283 25.2599 81.8008 25.6438C81.1766 26.0276 80.4524 26.2212 79.6513 26.2212C78.8636 26.2212 78.146 26.0276 77.5118 25.6438C76.8743 25.2599 76.367 24.7259 75.9965 24.055C75.626 23.3841 75.4391 22.6198 75.4391 21.7787C75.4391 20.9209 75.626 20.1499 75.9965 19.479C76.367 18.8114 76.8743 18.2774 77.5118 17.8936C78.146 17.5097 78.8669 17.3161 79.6513 17.3161C80.4524 17.3161 81.1766 17.5097 81.8008 17.8936C82.4283 18.2774 82.929 18.8114 83.2928 19.479C83.6566 20.1532 83.8402 20.9276 83.8402 21.782Z" fill="white"/>
<path d="M98.8001 15.0966C97.9456 14.7028 96.9911 14.5059 95.963 14.5059C94.5946 14.5059 93.3596 14.8196 92.2982 15.4371C91.2335 16.0546 90.3857 16.9257 89.7782 18.0238C89.1708 19.1186 88.8604 20.3836 88.8604 21.7854C88.8604 23.1539 89.1741 24.3989 89.7916 25.487C90.4091 26.5751 91.2735 27.4462 92.3616 28.0837C93.4497 28.7179 94.7014 29.0417 96.0899 29.0417C97.9657 29.0417 99.5544 28.4475 100.819 27.2727C101.116 26.9756 101.243 26.6352 101.2 26.2547C101.157 25.8908 100.963 25.5637 100.626 25.2834C100.352 25.0497 100.028 24.9496 99.6712 24.9796C99.3308 25.0097 99.0037 25.1532 98.69 25.4069C98.3495 25.6872 97.9657 25.8942 97.5585 26.0277C97.1413 26.1612 96.6473 26.228 96.0932 26.228C95.2588 26.228 94.5178 26.0344 93.8903 25.6505C93.2628 25.2667 92.7655 24.7393 92.4117 24.0785C92.0579 23.4176 91.8777 22.6466 91.8777 21.7888C91.8777 20.8809 92.0546 20.0832 92.4017 19.419C92.7455 18.7615 93.2294 18.2441 93.8369 17.877C94.4477 17.5098 95.162 17.3229 95.963 17.3229C97.1045 17.3229 98.0758 17.7368 98.8435 18.5545C99.1172 18.8282 99.4243 19.0018 99.7614 19.0685C100.122 19.142 100.459 19.0719 100.756 18.8583C101.113 18.6012 101.333 18.2942 101.417 17.9437C101.504 17.5699 101.4 17.2094 101.106 16.8723C100.432 16.0846 99.6546 15.4905 98.8001 15.0966Z" fill="white"/>
<path d="M113.873 15.4136C112.892 14.8095 111.707 14.5024 110.352 14.5024C108.983 14.5024 107.748 14.8162 106.687 15.4337C105.622 16.0511 104.781 16.919 104.18 18.0071C103.58 19.0918 103.276 20.3635 103.276 21.782C103.276 23.1872 103.596 24.4489 104.234 25.537C104.868 26.6251 105.759 27.4895 106.884 28.107C108.002 28.7245 109.297 29.0349 110.732 29.0349C111.533 29.0349 112.381 28.8847 113.252 28.591C114.127 28.2973 114.871 27.9101 115.462 27.4395C115.822 27.1658 115.993 26.822 115.973 26.4248C115.953 26.0476 115.766 25.7038 115.422 25.4001C115.152 25.1731 114.831 25.0597 114.471 25.0697C114.12 25.0797 113.793 25.1965 113.496 25.4135C113.182 25.6471 112.762 25.8607 112.244 26.041C111.73 26.2212 111.223 26.3146 110.736 26.3146C109.831 26.3146 109.02 26.1144 108.326 25.7205C107.632 25.3267 107.081 24.7826 106.687 24.1051C106.477 23.7446 106.32 23.3474 106.223 22.9269H115.475C115.882 22.9269 116.226 22.7967 116.497 22.5363C116.77 22.2727 116.907 21.9422 116.907 21.545C116.907 20.1833 116.647 18.9616 116.136 17.9103C115.612 16.8622 114.854 16.0178 113.873 15.4136ZM113.987 20.3768H106.25C106.333 20.0397 106.447 19.7193 106.59 19.4189C106.917 18.738 107.405 18.1973 108.039 17.8068C108.673 17.4163 109.451 17.216 110.352 17.216C111.133 17.216 111.804 17.3962 112.344 17.75C112.889 18.1072 113.312 18.6012 113.609 19.2153C113.78 19.5724 113.907 19.963 113.987 20.3768Z" fill="white"/>
<path d="M125.525 25.8707H124.667C124.21 25.8707 123.836 25.6805 123.519 25.29C123.192 24.8894 123.025 24.3788 123.025 23.7746V17.8235H124.894C125.315 17.8235 125.665 17.6966 125.936 17.4496C126.213 17.196 126.349 16.8722 126.349 16.4917C126.349 16.0778 126.209 15.7407 125.936 15.4837C125.665 15.2367 125.315 15.1099 124.894 15.1099H123.025V11.7522C123.025 11.3082 122.878 10.9411 122.591 10.6507C122.304 10.3637 121.934 10.2168 121.49 10.2168C121.046 10.2168 120.675 10.3637 120.388 10.6507C120.101 10.9377 119.954 11.3082 119.954 11.7522V15.1099H119.067C118.646 15.1099 118.292 15.2367 118.025 15.4837C117.748 15.7374 117.611 16.0778 117.611 16.4917C117.611 16.8722 117.752 17.1926 118.025 17.4496C118.296 17.7 118.646 17.8235 119.067 17.8235H119.954V23.7746C119.954 24.7392 120.161 25.6204 120.565 26.3948C120.972 27.1724 121.536 27.7966 122.247 28.2505C122.962 28.7045 123.773 28.9348 124.664 28.9348H125.118C125.619 28.9348 126.039 28.7946 126.366 28.5175C126.707 28.2305 126.877 27.8533 126.877 27.4027C126.877 26.9655 126.747 26.5984 126.493 26.3146C126.233 26.0209 125.906 25.8707 125.525 25.8707Z" fill="white"/>
<path d="M139.123 15.4136C138.142 14.8095 136.957 14.5024 135.602 14.5024C134.233 14.5024 132.998 14.8162 131.937 15.4337C130.872 16.0511 130.031 16.919 129.427 18.0071C128.826 19.0918 128.522 20.3635 128.522 21.782C128.522 23.1872 128.843 24.4489 129.48 25.537C130.115 26.6251 131.006 27.4895 132.131 28.107C133.249 28.7245 134.544 29.0349 135.979 29.0349C136.78 29.0349 137.628 28.8847 138.499 28.591C139.373 28.2973 140.118 27.9101 140.709 27.4395C141.069 27.1658 141.239 26.822 141.219 26.4248C141.199 26.0476 141.012 25.7038 140.668 25.4001C140.398 25.1731 140.081 25.0597 139.717 25.0697C139.367 25.0797 139.04 25.1965 138.743 25.4135C138.429 25.6471 138.008 25.8607 137.491 26.041C136.977 26.2212 136.47 26.3146 135.982 26.3146C135.078 26.3146 134.267 26.1144 133.572 25.7205C132.878 25.3267 132.327 24.7826 131.934 24.1084C131.723 23.7479 131.566 23.3507 131.47 22.9302H140.722C141.129 22.9302 141.473 22.8 141.743 22.5397C142.017 22.276 142.154 21.9456 142.154 21.5484C142.154 20.1866 141.893 18.965 141.383 17.9136C140.865 16.8622 140.104 16.0178 139.123 15.4136ZM131.503 20.3768C131.586 20.0397 131.7 19.7193 131.844 19.4189C132.171 18.738 132.658 18.1973 133.292 17.8068C133.926 17.4163 134.704 17.216 135.605 17.216C136.386 17.216 137.057 17.3962 137.598 17.75C138.142 18.1072 138.566 18.6012 138.863 19.2153C139.033 19.5724 139.16 19.9596 139.24 20.3735H131.503V20.3768Z" fill="white"/>
<path d="M153.412 21.2647C152.661 20.8675 151.629 20.537 150.351 20.28C149.463 20.0998 148.786 19.9129 148.335 19.7293C147.918 19.5591 147.644 19.3722 147.514 19.1753C147.384 18.9783 147.32 18.7547 147.32 18.5044C147.32 18.1205 147.517 17.8468 147.938 17.6399C148.408 17.4063 149.003 17.2894 149.693 17.2894C150.301 17.2894 150.842 17.3629 151.302 17.5031C151.746 17.6399 152.167 17.9002 152.557 18.2741C152.848 18.5444 153.208 18.7213 153.625 18.7981C154.066 18.8782 154.456 18.8048 154.797 18.5711C155.131 18.3208 155.311 18.0004 155.334 17.6266C155.354 17.2594 155.224 16.9123 154.944 16.5919C154.413 15.9377 153.689 15.4203 152.798 15.0532C151.913 14.6894 150.885 14.5024 149.744 14.5024C148.859 14.5024 147.998 14.646 147.184 14.933C146.352 15.2234 145.662 15.674 145.131 16.2681C144.583 16.8789 144.306 17.6566 144.306 18.5811C144.306 19.6325 144.724 20.5337 145.545 21.2547C146.342 21.9556 147.627 22.4863 149.37 22.8301C150.631 23.057 151.506 23.3441 151.963 23.6879C152.387 24.0049 152.587 24.3587 152.571 24.7693C152.557 25.1798 152.34 25.5103 151.906 25.7806C151.439 26.071 150.738 26.2179 149.82 26.2179C149.089 26.2179 148.418 26.0843 147.824 25.824C147.234 25.5637 146.803 25.2833 146.539 24.9929C146.259 24.6959 145.922 24.519 145.531 24.4689C145.131 24.4188 144.727 24.5523 144.336 24.8627C143.993 25.1264 143.789 25.4735 143.739 25.8908C143.686 26.318 143.819 26.7018 144.133 27.0356C144.714 27.6164 145.531 28.1003 146.563 28.4742C147.587 28.8446 148.716 29.0316 149.92 29.0316C151.149 29.0316 152.19 28.838 153.021 28.4508C153.862 28.0603 154.51 27.5296 154.947 26.8654C155.388 26.2012 155.611 25.4468 155.611 24.6224C155.611 23.9015 155.438 23.2573 155.091 22.6999C154.747 22.1592 154.183 21.6719 153.412 21.2647Z" fill="white"/>
<path d="M166.078 26.3146C165.815 26.0209 165.488 25.8707 165.107 25.8707H164.249C163.792 25.8707 163.418 25.6805 163.101 25.29C162.774 24.8894 162.607 24.3788 162.607 23.7746V17.8235H164.476C164.897 17.8235 165.247 17.6966 165.518 17.4496C165.795 17.196 165.932 16.8722 165.932 16.4917C165.932 16.0778 165.791 15.7407 165.518 15.4837C165.247 15.2367 164.897 15.1099 164.476 15.1099H162.607V11.7522C162.607 11.3082 162.46 10.9411 162.173 10.6507C161.886 10.3637 161.516 10.2168 161.072 10.2168C160.628 10.2168 160.257 10.3637 159.97 10.6507C159.683 10.9377 159.536 11.3082 159.536 11.7522V15.1099H158.649C158.228 15.1099 157.874 15.2367 157.607 15.4837C157.33 15.7374 157.193 16.0778 157.193 16.4917C157.193 16.8722 157.334 17.1926 157.607 17.4496C157.878 17.7 158.228 17.8235 158.649 17.8235H159.543V23.7746C159.543 24.7392 159.75 25.6204 160.154 26.3948C160.561 27.1724 161.125 27.7966 161.836 28.2505C162.55 28.7045 163.361 28.9348 164.253 28.9348H164.707C165.207 28.9348 165.628 28.7946 165.955 28.5175C166.295 28.2305 166.466 27.8533 166.466 27.4027C166.466 26.9655 166.335 26.6017 166.078 26.3146Z" fill="white"/>
<path d="M29.3518 15.0332C29.3518 14.5159 29.1482 14.0286 28.781 13.6647C28.0233 12.9104 26.7951 12.9138 26.0407 13.6714L19.8826 19.8596L16.5349 16.5318C16.1677 16.168 15.6838 15.9678 15.1698 15.9678C15.1664 15.9678 15.1664 15.9678 15.1631 15.9678C14.6457 15.9678 14.1584 16.1714 13.7946 16.5385C13.0403 17.2962 13.0436 18.5278 13.8013 19.2788L19.8926 25.3401L28.7843 16.405C29.1515 16.0379 29.3518 15.5506 29.3518 15.0332Z" fill="white"/>
<path d="M10.2935 9.77947C9.86298 9.3489 9.16539 9.3489 8.73816 9.77947L0 18.5176L2.33307 20.8507C2.54001 21.0576 2.81704 21.1745 3.11076 21.1745C3.40448 21.1745 3.68151 21.061 3.88845 20.8507C4.31568 20.4235 4.31568 19.7226 3.88845 19.2953L3.11076 18.5176L3.17418 18.4509L10.2902 11.3348C10.7241 10.9076 10.7241 10.21 10.2935 9.77947Z" fill="white"/>
<path d="M38.0536 19.5557C38.3473 19.5557 38.6243 19.4422 38.8312 19.232L42.6095 15.4537L27.1559 0L19.8596 7.29627L15.4939 2.93052L11.8257 6.59868C11.6188 6.80562 11.502 7.08265 11.502 7.37637C11.502 7.67009 11.6154 7.94712 11.8257 8.15406C12.2529 8.58463 12.9539 8.58463 13.3811 8.15406L15.4939 6.04128L19.8596 10.407L27.1559 3.11076L27.2226 3.17418L39.4988 15.4503L37.2759 17.6733C36.8453 18.1005 36.8453 18.8014 37.2759 19.2286C37.4861 19.4389 37.7598 19.5557 38.0536 19.5557Z" fill="white"/>
<path d="M5.62071 23.7379L19.8795 37.9966L23.3741 34.502C23.8046 34.0715 23.8046 33.3739 23.3741 32.9466C23.1671 32.7397 22.8901 32.6229 22.5964 32.6229C22.3027 32.6229 22.0256 32.7364 21.8187 32.9466L19.8795 34.8859L19.8127 34.8224L7.17609 22.1825C6.96248 21.9689 6.67877 21.8621 6.3984 21.8621C6.11804 21.8621 5.83433 21.9689 5.62071 22.1825C5.19349 22.6097 5.19349 23.3106 5.62071 23.7379Z" fill="white"/>
<path d="M34.8661 20.3601C34.5857 20.3601 34.302 20.4669 34.0884 20.6805L24.923 29.8459C24.4925 30.2731 24.4925 30.9741 24.923 31.4013C25.13 31.6082 25.407 31.7251 25.7007 31.7251C25.9944 31.7251 26.2715 31.6116 26.4784 31.4013L35.6438 22.2359C36.0744 21.8087 36.0744 21.1078 35.6438 20.6805C35.4302 20.4669 35.1465 20.3601 34.8661 20.3601Z" fill="white"/>
<path d="M17.3127 29.1984L19.8327 31.7184L27.5695 23.9816C28.0001 23.551 28.0001 22.8534 27.5695 22.4262C27.1389 21.9956 26.4413 21.9956 26.0141 22.4262L19.8327 28.6077L18.8681 27.6431C18.6544 27.4294 18.3707 27.3226 18.0904 27.3226C17.81 27.3226 17.5263 27.4294 17.3127 27.6431C16.8821 28.0703 16.8821 28.7679 17.3127 29.1984Z" fill="white"/>
<path d="M27.1057 6.25146L24.9963 8.36091C24.5657 8.79147 24.5657 9.48906 24.9963 9.91629C25.2032 10.1232 25.4802 10.24 25.774 10.24C26.0677 10.24 26.3447 10.1266 26.5516 9.91629L27.1057 9.36222L27.1725 9.42564L33.0902 15.3434L29.0416 19.3954C28.611 19.8227 28.611 20.5236 29.0416 20.9508C29.2485 21.1577 29.5256 21.2746 29.8193 21.2746C30.113 21.2746 30.39 21.1611 30.597 20.9508L36.201 15.3468L27.1057 6.25146Z" fill="white"/>
<path d="M23.3508 13.1006C23.7813 12.6733 23.7813 11.9724 23.3508 11.5452C22.9235 11.1146 22.2226 11.1146 21.7954 11.5452L19.8662 13.4744L15.5171 9.12866L6.3584 18.2874L14.1386 26.0676C14.3456 26.2746 14.6226 26.3914 14.9163 26.3914C15.21 26.3914 15.4871 26.2779 15.694 26.0676C16.1246 25.6404 16.1246 24.9395 15.694 24.5122L9.46916 18.2874L9.53258 18.2206L15.5138 12.2394L19.8662 16.5885L23.3508 13.1006Z" fill="white"/>
</g>
<defs>
<clipPath id="clip0_525_3743">
<rect width="166.466" height="38" fill="white"/>
</clipPath>
</defs>
</svg>
