<svg width="145" height="33" viewBox="0 0 145 33" fill="none" xmlns="http://www.w3.org/2000/svg">
<g clip-path="url(#clip0_150_4320)">
<path d="M50.8026 22.4114H50.0555C49.6571 22.4114 49.3315 22.2466 49.0553 21.9083C48.7704 21.5613 48.625 21.1189 48.625 20.5956V15.4402H50.2532C50.6195 15.4402 50.9247 15.3303 51.1602 15.1163C51.4015 14.8966 51.5207 14.6161 51.5207 14.2865C51.5207 13.9279 51.3986 13.6359 51.1602 13.4133C50.9247 13.1993 50.6195 13.0894 50.2532 13.0894H48.625V10.1806C48.625 9.79608 48.4971 9.47803 48.2471 9.22647C47.9971 8.97781 47.6744 8.85059 47.2877 8.85059C46.901 8.85059 46.5783 8.97781 46.3283 9.22647C46.0782 9.47513 45.9503 9.79608 45.9503 10.1806V13.0894H45.177C44.8106 13.0894 44.5025 13.1993 44.2699 13.4133C44.0286 13.633 43.9094 13.9279 43.9094 14.2865C43.9094 14.6161 44.0315 14.8937 44.2699 15.1163C44.5054 15.3332 44.8106 15.4402 45.177 15.4402H45.9503V20.5956C45.9503 21.4312 46.1306 22.1945 46.4823 22.8653C46.837 23.539 47.3284 24.0797 47.9476 24.473C48.5698 24.8662 49.2763 25.0657 50.0525 25.0657H50.4479C50.884 25.0657 51.2504 24.9443 51.5353 24.7043C51.8318 24.4556 51.9801 24.1289 51.9801 23.7386C51.9801 23.3598 51.8667 23.0446 51.6458 22.7959C51.4219 22.5415 51.137 22.4114 50.8026 22.4114Z" fill="#61175E"/>
<path d="M62.6704 12.9853C62.2023 12.6759 61.4958 12.5198 60.5742 12.5198C59.6584 12.5198 58.8065 12.7366 58.0448 13.1617C57.7075 13.3496 57.3965 13.5694 57.1203 13.818C57.0941 13.4682 56.9807 13.1935 56.783 12.994C56.5533 12.7684 56.2219 12.6528 55.7916 12.6528C55.3759 12.6528 55.0473 12.7713 54.8118 13.0055C54.5764 13.2397 54.4572 13.5665 54.4572 13.9799V23.7385C54.4572 24.1665 54.5764 24.5019 54.8148 24.7274C55.0502 24.9529 55.3788 25.0657 55.7916 25.0657C56.2219 25.0657 56.5562 24.9471 56.7859 24.71C57.0127 24.4758 57.1261 24.1491 57.1261 23.7385V17.3629C57.1261 16.7615 57.3209 16.2584 57.7046 15.8681C58.1 15.4661 58.6553 15.1886 59.3531 15.0382C60.0625 14.885 60.8794 14.8994 61.7749 15.0816C61.9958 15.1336 62.2052 15.1394 62.3971 15.1047C62.6006 15.0671 62.7837 14.9804 62.9407 14.8416C63.1035 14.6999 63.214 14.5004 63.2664 14.2517C63.3914 13.7573 63.1908 13.3294 62.6704 12.9853Z" fill="#61175E"/>
<path d="M75.6515 18.7075C75.6283 17.5856 75.3463 16.5563 74.8201 15.6513C74.2677 14.7029 73.5118 13.9424 72.5727 13.3931C71.6336 12.8437 70.5579 12.5632 69.3775 12.5632C68.2001 12.5632 67.1214 12.8408 66.1737 13.3931C65.2259 13.9424 64.4671 14.7029 63.9147 15.6513C63.3623 16.5997 63.0803 17.684 63.0803 18.8694C63.0803 20.0549 63.3361 21.1305 63.8449 22.0703C64.3537 23.0129 65.0572 23.7704 65.9353 24.3198C66.8191 24.872 67.8279 25.1525 68.9385 25.1525C70.0491 25.1525 71.058 24.872 71.9418 24.3198C72.3023 24.0943 72.6366 23.8311 72.939 23.5362V23.7386C72.939 24.1232 73.0698 24.447 73.3257 24.7015C73.5815 24.9588 73.9101 25.086 74.2938 25.086C74.6805 25.086 75.0061 24.9559 75.262 24.7015C75.5207 24.4441 75.6486 24.1203 75.6486 23.7386V18.7798L75.6515 18.7075ZM73.0291 18.8694C73.0291 19.5981 72.8692 20.2602 72.5523 20.8414C72.2383 21.4197 71.7993 21.8823 71.2528 22.2148C70.7091 22.5473 70.0782 22.715 69.3804 22.715C68.6943 22.715 68.0692 22.5473 67.5168 22.2148C66.9615 21.8823 66.5196 21.4197 66.1969 20.8385C65.8742 20.2573 65.7114 19.5952 65.7114 18.8665C65.7114 18.1235 65.8742 17.4555 66.1969 16.8744C66.5196 16.2961 66.9615 15.8334 67.5168 15.5009C68.0692 15.1684 68.6972 15.0007 69.3804 15.0007C70.0782 15.0007 70.7091 15.1684 71.2528 15.5009C71.7993 15.8334 72.2354 16.2961 72.5523 16.8744C72.8692 17.4584 73.0291 18.1292 73.0291 18.8694Z" fill="#61175E"/>
<path d="M86.0598 13.0779C85.3155 12.7368 84.484 12.5662 83.5886 12.5662C82.3966 12.5662 81.3208 12.838 80.3963 13.3729C79.4689 13.9078 78.7304 14.6624 78.2013 15.6137C77.6721 16.5621 77.4018 17.658 77.4018 18.8724C77.4018 20.0579 77.675 21.1364 78.2129 22.079C78.7508 23.0216 79.5038 23.7762 80.4516 24.3285C81.3993 24.8779 82.4896 25.1583 83.699 25.1583C85.333 25.1583 86.7168 24.6437 87.8187 23.6259C88.0775 23.3685 88.188 23.0736 88.1502 22.744C88.1124 22.4288 87.9437 22.1455 87.6501 21.9026C87.4117 21.7002 87.1297 21.6134 86.8186 21.6395C86.5221 21.6655 86.2371 21.7898 85.9638 22.0096C85.6673 22.2524 85.333 22.4317 84.9783 22.5474C84.6148 22.663 84.1846 22.7209 83.7019 22.7209C82.9751 22.7209 82.3297 22.5532 81.7831 22.2206C81.2365 21.8881 80.8033 21.4313 80.4952 20.8588C80.187 20.2863 80.03 19.6184 80.03 18.8753C80.03 18.0888 80.1841 17.3977 80.4864 16.8223C80.7859 16.2527 81.2075 15.8046 81.7366 15.4865C82.2686 15.1684 82.8908 15.0065 83.5886 15.0065C84.5829 15.0065 85.4289 15.3651 86.0976 16.0735C86.336 16.3106 86.6035 16.4609 86.8971 16.5187C87.2111 16.5824 87.5047 16.5216 87.7635 16.3366C88.0746 16.1139 88.2665 15.8479 88.3391 15.5443C88.4147 15.2205 88.3246 14.9082 88.0688 14.6162C87.4815 13.9338 86.8041 13.4191 86.0598 13.0779Z" fill="#61175E"/>
<path d="M99.1893 13.3526C98.3345 12.8292 97.3024 12.5632 96.122 12.5632C94.93 12.5632 93.8543 12.835 92.9298 13.3699C92.0023 13.9049 91.2697 14.6566 90.7464 15.5992C90.2231 16.5389 89.9585 17.6406 89.9585 18.8694C89.9585 20.0867 90.2376 21.1797 90.7929 22.1223C91.3453 23.0649 92.1215 23.8138 93.1013 24.3487C94.0753 24.8836 95.2033 25.1525 96.4535 25.1525C97.1512 25.1525 97.8897 25.0224 98.6485 24.768C99.4102 24.5135 100.059 24.1781 100.573 23.7704C100.887 23.5333 101.035 23.2355 101.018 22.8914C101.001 22.5647 100.838 22.2669 100.538 22.0037C100.303 21.8071 100.024 21.7088 99.7097 21.7175C99.4044 21.7262 99.1195 21.8274 98.8607 22.0153C98.5874 22.2177 98.2211 22.4028 97.7705 22.5589C97.3228 22.715 96.8808 22.796 96.4564 22.796C95.6685 22.796 94.962 22.6225 94.3573 22.2813C93.7525 21.9401 93.2728 21.4688 92.9298 20.8819C92.7466 20.5696 92.61 20.2255 92.5257 19.8612H100.585C100.939 19.8612 101.239 19.7484 101.474 19.5229C101.713 19.2945 101.832 19.0082 101.832 18.6641C101.832 17.4844 101.605 16.4262 101.16 15.5154C100.704 14.6075 100.044 13.8759 99.1893 13.3526ZM99.2881 17.6521H92.5489C92.6216 17.3601 92.7205 17.0825 92.8455 16.8223C93.1304 16.2325 93.5549 15.764 94.1072 15.4257C94.6596 15.0874 95.337 14.914 96.122 14.914C96.8023 14.914 97.3867 15.0701 97.8577 15.3766C98.3316 15.686 98.7008 16.1139 98.9596 16.6459C99.1079 16.9553 99.2183 17.2936 99.2881 17.6521Z" fill="#61175E"/>
<path d="M109.339 22.4114H108.592C108.193 22.4114 107.868 22.2466 107.591 21.9083C107.307 21.5613 107.161 21.1189 107.161 20.5956V15.4402H108.789C109.156 15.4402 109.461 15.3303 109.696 15.1163C109.938 14.8966 110.057 14.6161 110.057 14.2865C110.057 13.9279 109.935 13.6359 109.696 13.4133C109.461 13.1993 109.156 13.0894 108.789 13.0894H107.161V10.1806C107.161 9.79608 107.033 9.47803 106.783 9.22647C106.533 8.97781 106.21 8.85059 105.824 8.85059C105.437 8.85059 105.114 8.97781 104.864 9.22647C104.614 9.47513 104.486 9.79608 104.486 10.1806V13.0894H103.713C103.347 13.0894 103.039 13.1993 102.806 13.4133C102.565 13.633 102.445 13.9279 102.445 14.2865C102.445 14.6161 102.568 14.8937 102.806 15.1163C103.041 15.3332 103.347 15.4402 103.713 15.4402H104.486V20.5956C104.486 21.4312 104.667 22.1945 105.018 22.8653C105.373 23.539 105.864 24.0797 106.484 24.473C107.106 24.8662 107.812 25.0657 108.589 25.0657H108.984C109.42 25.0657 109.786 24.9443 110.071 24.7043C110.368 24.4556 110.516 24.1289 110.516 23.7386C110.516 23.3598 110.403 23.0417 110.182 22.7959C109.955 22.5415 109.67 22.4114 109.339 22.4114Z" fill="#61175E"/>
<path d="M121.183 13.3526C120.328 12.8292 119.296 12.5632 118.116 12.5632C116.924 12.5632 115.848 12.835 114.924 13.3699C113.996 13.9049 113.264 14.6566 112.737 15.5992C112.214 16.5389 111.95 17.6406 111.95 18.8694C111.95 20.0867 112.229 21.1797 112.784 22.1223C113.336 23.0649 114.113 23.8138 115.092 24.3487C116.066 24.8836 117.194 25.1525 118.444 25.1525C119.142 25.1525 119.881 25.0224 120.64 24.768C121.401 24.5135 122.05 24.1781 122.564 23.7704C122.878 23.5333 123.026 23.2355 123.009 22.8914C122.992 22.5647 122.829 22.2669 122.529 22.0037C122.294 21.8071 122.018 21.7088 121.701 21.7175C121.395 21.7262 121.111 21.8274 120.852 22.0153C120.578 22.2177 120.212 22.4028 119.762 22.5589C119.314 22.715 118.872 22.796 118.447 22.796C117.66 22.796 116.953 22.6225 116.348 22.2813C115.744 21.9401 115.264 21.4688 114.921 20.8848C114.738 20.5725 114.601 20.2284 114.517 19.8641H122.576C122.93 19.8641 123.23 19.7513 123.465 19.5258C123.704 19.2974 123.823 19.0111 123.823 18.667C123.823 17.4873 123.596 16.4291 123.151 15.5183C122.701 14.6075 122.038 13.8759 121.183 13.3526ZM114.546 17.6521C114.618 17.3601 114.717 17.0825 114.842 16.8223C115.127 16.2325 115.552 15.764 116.104 15.4257C116.656 15.0874 117.334 14.914 118.119 14.914C118.799 14.914 119.384 15.0701 119.855 15.3766C120.328 15.686 120.698 16.1139 120.956 16.6459C121.105 16.9553 121.215 17.2907 121.285 17.6493H114.546V17.6521Z" fill="#61175E"/>
<path d="M133.629 18.4213C132.975 18.0772 132.077 17.7909 130.963 17.5683C130.19 17.4122 129.6 17.2502 129.207 17.0912C128.844 16.9437 128.606 16.7818 128.492 16.6112C128.379 16.4406 128.324 16.2469 128.324 16.0301C128.324 15.6975 128.495 15.4604 128.861 15.2812C129.271 15.0788 129.789 14.9776 130.391 14.9776C130.92 14.9776 131.391 15.0412 131.792 15.1626C132.179 15.2812 132.545 15.5067 132.885 15.8305C133.138 16.0648 133.452 16.218 133.816 16.2845C134.199 16.3539 134.539 16.2903 134.836 16.0879C135.127 15.871 135.284 15.5934 135.304 15.2696C135.322 14.9516 135.208 14.6508 134.964 14.3733C134.502 13.8065 133.871 13.3584 133.094 13.0403C132.324 12.7252 131.429 12.5632 130.434 12.5632C129.664 12.5632 128.914 12.6876 128.204 12.9362C127.48 13.1878 126.879 13.5781 126.416 14.0928C125.94 14.6219 125.698 15.2956 125.698 16.0966C125.698 17.0074 126.062 17.788 126.777 18.4126C127.472 19.0198 128.591 19.4795 130.109 19.7773C131.208 19.974 131.969 20.2226 132.368 20.5204C132.737 20.7951 132.911 21.1016 132.897 21.4573C132.885 21.8129 132.696 22.0992 132.318 22.3334C131.911 22.5849 131.301 22.7121 130.501 22.7121C129.864 22.7121 129.28 22.5965 128.763 22.371C128.248 22.1454 127.873 21.9025 127.643 21.651C127.399 21.3937 127.105 21.2404 126.765 21.197C126.416 21.1537 126.065 21.2693 125.724 21.5382C125.425 21.7666 125.248 22.0674 125.204 22.4288C125.157 22.7989 125.274 23.1314 125.547 23.4205C126.053 23.9237 126.765 24.3429 127.664 24.6667C128.556 24.9877 129.539 25.1496 130.588 25.1496C131.658 25.1496 132.565 24.9819 133.289 24.6465C134.022 24.3082 134.586 23.8485 134.967 23.2731C135.351 22.6977 135.545 22.0442 135.545 21.33C135.545 20.7055 135.394 20.1474 135.092 19.6646C134.792 19.1962 134.301 18.774 133.629 18.4213Z" fill="#61175E"/>
<path d="M144.663 22.7959C144.433 22.5415 144.148 22.4114 143.817 22.4114H143.07C142.671 22.4114 142.346 22.2466 142.069 21.9083C141.785 21.5613 141.639 21.1189 141.639 20.5956V15.4402H143.267C143.634 15.4402 143.939 15.3303 144.174 15.1163C144.416 14.8966 144.535 14.6161 144.535 14.2865C144.535 13.9279 144.413 13.6359 144.174 13.4133C143.939 13.1993 143.634 13.0894 143.267 13.0894H141.639V10.1806C141.639 9.79608 141.511 9.47803 141.261 9.22647C141.011 8.97781 140.688 8.85059 140.302 8.85059C139.915 8.85059 139.592 8.97781 139.342 9.22647C139.092 9.47513 138.964 9.79608 138.964 10.1806V13.0894H138.191C137.825 13.0894 137.517 13.1993 137.284 13.4133C137.043 13.633 136.923 13.9279 136.923 14.2865C136.923 14.6161 137.046 14.8937 137.284 15.1163C137.519 15.3332 137.825 15.4402 138.191 15.4402H138.97V20.5956C138.97 21.4312 139.15 22.1945 139.502 22.8653C139.857 23.539 140.348 24.0797 140.968 24.473C141.59 24.8662 142.296 25.0657 143.072 25.0657H143.468C143.904 25.0657 144.27 24.9443 144.555 24.7043C144.852 24.4556 145 24.1289 145 23.7386C145 23.3598 144.887 23.0446 144.663 22.7959Z" fill="#61175E"/>
<path d="M25.567 13.0229C25.567 12.5747 25.3897 12.1526 25.0699 11.8374C24.4099 11.184 23.34 11.1868 22.683 11.8432L17.3189 17.2039L14.4029 14.3212C14.0831 14.006 13.6615 13.8325 13.2138 13.8325C13.2109 13.8325 13.2109 13.8325 13.208 13.8325C12.7573 13.8325 12.3329 14.0089 12.016 14.3269C11.3589 14.9833 11.3618 16.0502 12.0218 16.7008L17.3277 21.9516L25.0728 14.2113C25.3926 13.8932 25.567 13.4711 25.567 13.0229Z" fill="#61175E"/>
<path d="M8.9662 8.47188C8.59115 8.09889 7.98352 8.09889 7.61138 8.47188L0 16.0416L2.03222 18.0628C2.21248 18.242 2.45378 18.3432 2.70963 18.3432C2.96547 18.3432 3.20678 18.2449 3.38704 18.0628C3.75917 17.6927 3.75917 17.0855 3.38704 16.7154L2.70963 16.0416L2.76487 15.9838L8.96329 9.81929C9.34124 9.44919 9.34124 8.84488 8.9662 8.47188Z" fill="url(#paint0_linear_150_4320)"/>
<path d="M33.1464 16.9409C33.4023 16.9409 33.6436 16.8426 33.8238 16.6604L37.1149 13.3873L23.654 0L17.2986 6.32066L13.4958 2.53867L10.3007 5.71635C10.1204 5.89562 10.0186 6.13561 10.0186 6.39006C10.0186 6.6445 10.1175 6.88449 10.3007 7.06376C10.6728 7.43675 11.2833 7.43675 11.6555 7.06376L13.4958 5.23349L17.2986 9.01548L23.654 2.69481L23.7122 2.74975L34.4053 13.3844L32.469 15.3101C32.094 15.6802 32.094 16.2874 32.469 16.6575C32.6522 16.8397 32.8906 16.9409 33.1464 16.9409Z" fill="url(#paint1_linear_150_4320)"/>
<path d="M4.89592 20.5639L17.316 32.9161L20.36 29.8888C20.735 29.5158 20.735 28.9115 20.36 28.5414C20.1797 28.3621 19.9384 28.2609 19.6826 28.2609C19.4267 28.2609 19.1854 28.3592 19.0052 28.5414L17.316 30.2213L17.2579 30.1664L6.25074 19.2165C6.06467 19.0315 5.81755 18.939 5.57333 18.939C5.32912 18.939 5.08199 19.0315 4.89592 19.2165C4.52379 19.5866 4.52379 20.1938 4.89592 20.5639Z" fill="url(#paint2_linear_150_4320)"/>
<path d="M30.3699 17.6377C30.1257 17.6377 29.8786 17.7302 29.6925 17.9153L21.709 25.8551C21.334 26.2252 21.334 26.8324 21.709 27.2025C21.8893 27.3818 22.1306 27.483 22.3864 27.483C22.6423 27.483 22.8836 27.3847 23.0638 27.2025L31.0474 19.2627C31.4224 18.8926 31.4224 18.2854 31.0474 17.9153C30.8613 17.7302 30.6142 17.6377 30.3699 17.6377Z" fill="url(#paint3_linear_150_4320)"/>
<path d="M15.0803 25.2942L17.2753 27.4772L24.0145 20.7749C24.3896 20.4019 24.3896 19.7976 24.0145 19.4275C23.6395 19.0545 23.0318 19.0545 22.6597 19.4275L17.2753 24.7824L16.4351 23.9468C16.249 23.7617 16.0019 23.6692 15.7577 23.6692C15.5135 23.6692 15.2664 23.7617 15.0803 23.9468C14.7052 24.3169 14.7052 24.9212 15.0803 25.2942Z" fill="url(#paint4_linear_150_4320)"/>
<path d="M23.6104 5.41553L21.773 7.24291C21.3979 7.6159 21.3979 8.22021 21.773 8.59032C21.9532 8.76958 22.1945 8.87078 22.4504 8.87078C22.7062 8.87078 22.9475 8.77248 23.1278 8.59032L23.6104 8.11034L23.6686 8.16528L28.8232 13.2918L25.2967 16.802C24.9216 17.1721 24.9216 17.7793 25.2967 18.1494C25.4769 18.3286 25.7182 18.4298 25.9741 18.4298C26.2299 18.4298 26.4712 18.3315 26.6515 18.1494L31.5329 13.2947L23.6104 5.41553Z" fill="url(#paint5_linear_150_4320)"/>
<path d="M20.3397 11.3488C20.7147 10.9787 20.7147 10.3715 20.3397 10.0014C19.9675 9.62836 19.357 9.62836 18.9848 10.0014L17.3044 11.6726L13.5162 7.90796L5.53845 15.842L12.3154 22.582C12.4957 22.7612 12.737 22.8624 12.9928 22.8624C13.2487 22.8624 13.49 22.7641 13.6702 22.582C14.0453 22.2119 14.0453 21.6047 13.6702 21.2346L8.24808 15.842L8.30332 15.7842L13.5132 10.6028L17.3044 14.3703L20.3397 11.3488Z" fill="url(#paint6_linear_150_4320)"/>
</g>
<defs>
<linearGradient id="paint0_linear_150_4320" x1="-4.47699" y1="23.1897" x2="25.2725" y2="-6.72337" gradientUnits="userSpaceOnUse">
<stop stop-color="#FDE87E"/>
<stop offset="0.0641" stop-color="#FBD178"/>
<stop offset="0.1985" stop-color="#F79668"/>
<stop offset="0.3907" stop-color="#F03950"/>
<stop offset="0.4545" stop-color="#EE1847"/>
<stop offset="0.5636" stop-color="#CB184D"/>
<stop offset="0.8043" stop-color="#72175B"/>
<stop offset="0.8492" stop-color="#61175E"/>
</linearGradient>
<linearGradient id="paint1_linear_150_4320" x1="2.75987" y1="30.387" x2="32.5094" y2="0.473894" gradientUnits="userSpaceOnUse">
<stop stop-color="#FDE87E"/>
<stop offset="0.0641" stop-color="#FBD178"/>
<stop offset="0.1985" stop-color="#F79668"/>
<stop offset="0.3907" stop-color="#F03950"/>
<stop offset="0.4545" stop-color="#EE1847"/>
<stop offset="0.5636" stop-color="#CB184D"/>
<stop offset="0.8043" stop-color="#72175B"/>
<stop offset="0.8492" stop-color="#61175E"/>
</linearGradient>
<linearGradient id="paint2_linear_150_4320" x1="4.76169" y1="32.378" x2="34.5112" y2="2.46492" gradientUnits="userSpaceOnUse">
<stop stop-color="#FDE87E"/>
<stop offset="0.0641" stop-color="#FBD178"/>
<stop offset="0.1985" stop-color="#F79668"/>
<stop offset="0.3907" stop-color="#F03950"/>
<stop offset="0.4545" stop-color="#EE1847"/>
<stop offset="0.5636" stop-color="#CB184D"/>
<stop offset="0.8043" stop-color="#72175B"/>
<stop offset="0.8492" stop-color="#61175E"/>
</linearGradient>
<linearGradient id="paint3_linear_150_4320" x1="10.6335" y1="38.2176" x2="40.383" y2="8.30445" gradientUnits="userSpaceOnUse">
<stop stop-color="#FDE87E"/>
<stop offset="0.0641" stop-color="#FBD178"/>
<stop offset="0.1985" stop-color="#F79668"/>
<stop offset="0.3907" stop-color="#F03950"/>
<stop offset="0.4545" stop-color="#EE1847"/>
<stop offset="0.5636" stop-color="#CB184D"/>
<stop offset="0.8043" stop-color="#72175B"/>
<stop offset="0.8492" stop-color="#61175E"/>
</linearGradient>
<linearGradient id="paint4_linear_150_4320" x1="7.11823" y1="34.7215" x2="36.8678" y2="4.8084" gradientUnits="userSpaceOnUse">
<stop stop-color="#FDE87E"/>
<stop offset="0.0641" stop-color="#FBD178"/>
<stop offset="0.1985" stop-color="#F79668"/>
<stop offset="0.3907" stop-color="#F03950"/>
<stop offset="0.4545" stop-color="#EE1847"/>
<stop offset="0.5636" stop-color="#CB184D"/>
<stop offset="0.8043" stop-color="#72175B"/>
<stop offset="0.8492" stop-color="#61175E"/>
</linearGradient>
<linearGradient id="paint5_linear_150_4320" x1="4.59301" y1="32.21" x2="34.3426" y2="2.29691" gradientUnits="userSpaceOnUse">
<stop stop-color="#FDE87E"/>
<stop offset="0.0641" stop-color="#FBD178"/>
<stop offset="0.1985" stop-color="#F79668"/>
<stop offset="0.3907" stop-color="#F03950"/>
<stop offset="0.4545" stop-color="#EE1847"/>
<stop offset="0.5636" stop-color="#CB184D"/>
<stop offset="0.8043" stop-color="#72175B"/>
<stop offset="0.8492" stop-color="#61175E"/>
</linearGradient>
<linearGradient id="paint6_linear_150_4320" x1="0.563261" y1="28.2023" x2="30.3128" y2="-1.71079" gradientUnits="userSpaceOnUse">
<stop stop-color="#FDE87E"/>
<stop offset="0.0641" stop-color="#FBD178"/>
<stop offset="0.1985" stop-color="#F79668"/>
<stop offset="0.3907" stop-color="#F03950"/>
<stop offset="0.4545" stop-color="#EE1847"/>
<stop offset="0.5636" stop-color="#CB184D"/>
<stop offset="0.8043" stop-color="#72175B"/>
<stop offset="0.8492" stop-color="#61175E"/>
</linearGradient>
<clipPath id="clip0_150_4320">
<rect width="145" height="32.9189" fill="white"/>
</clipPath>
</defs>
</svg>
