<svg width="75" height="56" viewBox="0 0 75 56" fill="none" xmlns="http://www.w3.org/2000/svg">
<g id="Media">
<g id="Group 47583">
<g id="Group">
<g id="Group_2">
<path id="Vector" d="M73.2984 4.0762V51.9238C73.2984 53.6108 71.9124 55 70.2295 55H4.75737C3.07443 55 1.68848 53.6108 1.68848 51.9238V4.0762C1.68848 2.38925 3.07443 1 4.75737 1H70.2295C71.9124 1 73.2984 2.38925 73.2984 4.0762Z" fill="white" stroke="#D6DCE8" stroke-width="2" stroke-miterlimit="10"/>
<g id="Group 47585">
<g id="Chat back">
<mask id="path-2-outside-1_1132_34550" maskUnits="userSpaceOnUse" x="23.52" y="14" width="32" height="25" fill="black">
<rect fill="white" x="23.52" y="14" width="32" height="25"/>
<path fill-rule="evenodd" clip-rule="evenodd" d="M51.9408 19.4646C51.6862 17.8892 50.736 16.9405 49.2052 16.7241C49.1679 16.7151 45.4397 16 39.5889 16C33.7397 16 30.0116 16.7151 29.9865 16.7208C28.7889 16.8911 27.9538 17.5049 27.52 18.4981C30.0272 18.2209 32.5479 18.0848 35.0703 18.0903C40.7411 18.0903 44.5138 18.7422 45.0676 18.8443C47.5641 19.2189 49.3 20.9508 49.72 23.4886C49.9016 24.3157 50.4757 27.2232 50.4757 30.6943C50.4757 32.5527 50.3087 34.2578 50.1287 35.5608C51.1179 35.1424 51.7406 34.3041 51.9368 33.0927C51.9433 33.0627 52.6608 30.0003 52.6608 26.2697C52.6608 22.54 51.9433 19.4776 51.9392 19.4638"/>
</mask>
<path d="M49.2052 16.7241L48.74 18.6692L48.8317 18.6911L48.9251 18.7043L49.2052 16.7241ZM29.9865 16.7208L30.268 18.7009L30.3481 18.6895L30.427 18.6717L29.9865 16.7208ZM27.52 18.4981L25.6872 17.6976L24.3035 20.8659L27.7398 20.486L27.52 18.4981ZM35.0703 18.0903L35.0659 20.0903H35.0703V18.0903ZM45.0676 18.8443L44.7047 20.8111L44.7377 20.8172L44.7708 20.8222L45.0676 18.8443ZM49.72 23.4886L47.7469 23.8152L47.7554 23.8667L47.7666 23.9176L49.72 23.4886ZM50.1287 35.5608L48.1475 35.2871L47.6658 38.774L50.9077 37.4028L50.1287 35.5608ZM51.9368 33.0927L49.9819 32.6701L49.9709 32.7213L49.9625 32.7729L51.9368 33.0927ZM53.9152 19.1455C53.7349 18.0297 53.2803 16.9858 52.4664 16.1711C51.6488 15.3528 50.6044 14.902 49.4852 14.7438L48.9251 18.7043C49.3367 18.7626 49.5329 18.8944 49.6367 18.9983C49.7443 19.106 49.8922 19.3241 49.9664 19.7837L53.9152 19.1455ZM49.6703 14.7789C49.4558 14.7276 45.5686 14 39.5889 14V18C45.3109 18 48.8799 18.7027 48.74 18.6692L49.6703 14.7789ZM39.5889 14C33.6017 14 29.7253 14.7294 29.546 14.7699L30.427 18.6717C30.298 18.7008 33.8778 18 39.5889 18V14ZM29.705 14.7407C27.8928 14.9984 26.4265 16.0049 25.6872 17.6976L29.3528 19.2986C29.4811 19.0049 29.6851 18.7838 30.268 18.7009L29.705 14.7407ZM27.7398 20.486C30.1725 20.2171 32.6184 20.0849 35.0659 20.0903L35.0746 16.0903C32.4774 16.0846 29.8818 16.2248 27.3003 16.5102L27.7398 20.486ZM35.0703 20.0903C40.5928 20.0903 44.2413 20.7256 44.7047 20.8111L45.4304 16.8775C44.7863 16.7587 40.8894 16.0903 35.0703 16.0903V20.0903ZM44.7708 20.8222C46.3882 21.0649 47.4649 22.1116 47.7469 23.8152L51.6932 23.1621C51.1351 19.7901 48.74 17.373 45.3644 16.8665L44.7708 20.8222ZM47.7666 23.9176C47.9316 24.6693 48.4757 27.4219 48.4757 30.6943H52.4757C52.4757 27.0246 51.8716 23.9621 51.6735 23.0597L47.7666 23.9176ZM48.4757 30.6943C48.4757 32.4377 48.3186 34.0482 48.1475 35.2871L52.1099 35.8345C52.2987 34.4675 52.4757 32.6677 52.4757 30.6943H48.4757ZM50.9077 37.4028C52.617 36.6799 53.6207 35.205 53.911 33.4125L49.9625 32.7729C49.8604 33.4031 49.6187 33.605 49.3496 33.7188L50.9077 37.4028ZM53.8916 33.5153C53.8882 33.5313 53.9423 33.2975 54.0157 32.9214C54.0892 32.5445 54.185 32.0107 54.2803 31.3575C54.4702 30.0556 54.6608 28.2573 54.6608 26.2697H50.6608C50.6608 29.7738 49.984 32.6604 49.9819 32.6701L53.8916 33.5153ZM54.6608 26.2697C54.6608 22.3442 53.9145 19.0918 53.8579 18.8993L50.0205 20.0282C49.972 19.8633 50.6608 22.7358 50.6608 26.2697H54.6608Z" fill="#031849" mask="url(#path-2-outside-1_1132_34550)"/>
</g>
<path id="Chat" d="M49.1422 30.6955C49.1422 27.1056 48.4999 24.1199 48.404 23.6973C48.2468 22.7585 47.8701 21.9328 47.2401 21.3022C46.606 20.6674 45.782 20.297 44.8494 20.1606C44.3748 20.0711 40.6724 19.4258 35.0711 19.4258C29.68 19.4258 26.0244 20.0244 25.3282 20.1557L25.3282 20.1557C24.3818 20.29 23.5472 20.6605 22.9068 21.2977C22.2749 21.9264 21.8982 22.7489 21.7428 23.6818C21.6292 24.1765 21 27.1425 21 30.6955C21 32.6214 21.1848 34.3695 21.3693 35.636C21.5177 36.6542 21.6721 37.4019 21.7375 37.6838C21.8937 38.6261 22.2705 39.4552 22.9025 40.088C23.5364 40.7227 24.3603 41.0931 25.2929 41.2296L25.3087 41.2325C25.3314 41.2367 25.3633 41.2425 25.4042 41.2497C25.486 41.2641 25.6037 41.2843 25.7556 41.3086C26.0594 41.3574 26.5003 41.423 27.0653 41.4941C28.0911 41.623 29.5268 41.7696 31.295 41.8641L33.3965 45.5044C33.5661 45.7984 33.8102 46.0426 34.1042 46.2124C34.3981 46.3822 34.7316 46.4716 35.0711 46.4716C35.4105 46.4716 35.744 46.3822 36.038 46.2124L35.5378 45.3465L36.038 46.2124C36.332 46.0426 36.576 45.7984 36.7457 45.5044L38.8479 41.8649C42.2148 41.6842 44.3919 41.3149 44.8294 41.2324C45.7695 41.0964 46.5987 40.7264 47.2358 40.0926C47.8678 39.4639 48.2448 38.6414 48.4002 37.7082C48.5138 37.2129 49.1422 34.2472 49.1422 30.6955Z" stroke="#031849" stroke-width="2"/>
</g>
<g id="Group_3">
<path id="Vector_2" d="M73.2984 4.31558V6.53635H1.68848V4.31558C1.68848 2.63767 3.07443 1.25586 4.75737 1.25586H70.2295C71.9124 1.25586 73.2984 2.63767 73.2984 4.31558Z" fill="#E2E6EF" stroke="#D6DCE8" stroke-width="2" stroke-miterlimit="10"/>
<path id="Vector_3" d="M4.69322 4.85773C5.21117 4.85773 5.63106 4.43793 5.63106 3.92008C5.63106 3.40223 5.21117 2.98242 4.69322 2.98242C4.17526 2.98242 3.75537 3.40223 3.75537 3.92008C3.75537 4.43793 4.17526 4.85773 4.69322 4.85773Z" fill="#031849"/>
<path id="Vector_4" opacity="0.6" d="M7.60533 4.85773C8.12328 4.85773 8.54317 4.43793 8.54317 3.92008C8.54317 3.40223 8.12328 2.98242 7.60533 2.98242C7.08737 2.98242 6.66748 3.40223 6.66748 3.92008C6.66748 4.43793 7.08737 4.85773 7.60533 4.85773Z" fill="#031849"/>
<path id="Vector_5" opacity="0.4" d="M10.5672 4.85773C11.0852 4.85773 11.5051 4.43793 11.5051 3.92008C11.5051 3.40223 11.0852 2.98242 10.5672 2.98242C10.0493 2.98242 9.62939 3.40223 9.62939 3.92008C9.62939 4.43793 10.0493 4.85773 10.5672 4.85773Z" fill="#031849"/>
</g>
</g>
</g>
</g>
</g>
</svg>
