<svg width="14" height="14" viewBox="0 0 14 14" fill="none" xmlns="http://www.w3.org/2000/svg">
<path d="M6.99998 3.12329e-05C5.14342 3.12329e-05 3.3631 0.737595 2.05029 2.05032C0.73747 3.36304 0 5.14345 0 7.00002C0 8.85658 0.737564 10.6369 2.05029 11.9497C3.36301 13.2625 5.14342 14 6.99998 14C8.85655 14 10.6369 13.2624 11.9497 11.9497C13.2625 10.637 14 8.85658 14 7.00002C14 5.77126 13.6765 4.5641 13.0621 3.50001C12.4477 2.43591 11.564 1.55225 10.5 0.937877C9.43586 0.323501 8.2287 0 6.99995 0L6.99998 3.12329e-05ZM6.99998 12.6001C5.51476 12.6001 4.09045 12.0101 3.04029 10.9599C1.99013 9.90965 1.40016 8.4853 1.40016 7.00024C1.40016 5.51517 1.99013 4.0907 3.04029 3.04054C4.09057 1.99038 5.51492 1.40041 6.99998 1.40041C8.48505 1.40041 9.90952 1.99038 10.9597 3.04054C12.0098 4.09082 12.5998 5.51517 12.5998 7.00024C12.5998 7.98327 12.341 8.94896 11.8496 9.8003C11.3581 10.6516 10.6512 11.3585 9.79986 11.85C8.94855 12.3415 7.98283 12.6002 6.9998 12.6002L6.99998 12.6001Z" fill="#61175E"/>
<path d="M4.79154 6.99999C4.79154 7.62243 4.28692 8.12693 3.6646 8.12693C3.04216 8.12693 2.53754 7.62239 2.53754 6.99999C2.53754 6.37758 3.04216 5.87305 3.6646 5.87305C4.28692 5.87305 4.79154 6.37758 4.79154 6.99999Z" fill="#61175E"/>
<path d="M8.12687 6.99999C8.12687 7.62243 7.62233 8.12693 6.99993 8.12693C6.37752 8.12693 5.87299 7.62239 5.87299 6.99999C5.87299 6.37758 6.37752 5.87305 6.99993 5.87305C7.62233 5.87305 8.12687 6.37758 8.12687 6.99999Z" fill="#61175E"/>
<path d="M11.4625 6.99999C11.4625 7.62243 10.9579 8.12693 10.3354 8.12693C9.71312 8.12693 9.2085 7.62239 9.2085 6.99999C9.2085 6.37758 9.71312 5.87305 10.3354 5.87305C10.9579 5.87305 11.4625 6.37758 11.4625 6.99999Z" fill="#61175E"/>
</svg>
