<svg width="18" height="18" viewBox="0 0 18 18" fill="none" xmlns="http://www.w3.org/2000/svg">
<path d="M9.07031 11.8301C9.07031 11.9074 9.13008 11.9707 9.20215 11.9707H12.4541C12.5262 11.9707 12.5859 11.9074 12.5859 11.8301V10.9863C12.5859 10.909 12.5262 10.8457 12.4541 10.8457H9.20215C9.13008 10.8457 9.07031 10.909 9.07031 10.9863V11.8301ZM5.64434 11.9373L9.01934 9.10723C9.08613 9.05098 9.08613 8.94727 9.01934 8.89102L5.64434 6.0627C5.62396 6.04537 5.59904 6.03425 5.57254 6.03067C5.54604 6.02708 5.51906 6.03118 5.49482 6.04247C5.47057 6.05376 5.45007 6.07177 5.43576 6.09436C5.42145 6.11695 5.41392 6.14318 5.41406 6.16992V7.27207C5.41406 7.31426 5.43164 7.35293 5.46504 7.3793L7.39512 9L5.46504 10.6207C5.44933 10.6339 5.43664 10.6502 5.42784 10.6687C5.41904 10.6873 5.41434 10.7074 5.41406 10.7279V11.8301C5.41406 11.9496 5.55293 12.0146 5.64434 11.9373ZM15.4688 1.96875H2.53125C2.22012 1.96875 1.96875 2.22012 1.96875 2.53125V15.4688C1.96875 15.7799 2.22012 16.0312 2.53125 16.0312H15.4688C15.7799 16.0312 16.0312 15.7799 16.0312 15.4688V2.53125C16.0312 2.22012 15.7799 1.96875 15.4688 1.96875ZM14.7656 14.7656H3.23438V3.23438H14.7656V14.7656Z" fill="#61175E"/>
</svg>
